G04 EAGLE Gerber RS-274X export*
G75*
%MOMM*%
%FSLAX34Y34*%
%LPD*%
%INSilk screen SOL*%
%IPPOS*%
%AMOC8*
5,1,8,0,0,1.08239X$1,22.5*%
G01*
%ADD10C,0.000000*%
%ADD11C,0.127000*%
%ADD12C,0.101600*%


D10*
X78740Y-461010D02*
X1099160Y-461010D01*
X1099160Y673100D01*
X78740Y673100D01*
X78740Y-461010D01*
X112490Y321804D02*
X112492Y322000D01*
X112500Y322197D01*
X112512Y322393D01*
X112529Y322588D01*
X112550Y322783D01*
X112577Y322978D01*
X112608Y323172D01*
X112644Y323365D01*
X112684Y323557D01*
X112730Y323748D01*
X112780Y323938D01*
X112834Y324126D01*
X112894Y324313D01*
X112958Y324499D01*
X113026Y324683D01*
X113099Y324865D01*
X113176Y325046D01*
X113258Y325224D01*
X113344Y325401D01*
X113435Y325575D01*
X113529Y325747D01*
X113628Y325917D01*
X113731Y326084D01*
X113838Y326249D01*
X113949Y326410D01*
X114064Y326570D01*
X114183Y326726D01*
X114306Y326879D01*
X114432Y327029D01*
X114562Y327176D01*
X114696Y327320D01*
X114833Y327461D01*
X114974Y327598D01*
X115118Y327732D01*
X115265Y327862D01*
X115415Y327988D01*
X115568Y328111D01*
X115724Y328230D01*
X115884Y328345D01*
X116045Y328456D01*
X116210Y328563D01*
X116377Y328666D01*
X116547Y328765D01*
X116719Y328859D01*
X116893Y328950D01*
X117070Y329036D01*
X117248Y329118D01*
X117429Y329195D01*
X117611Y329268D01*
X117795Y329336D01*
X117981Y329400D01*
X118168Y329460D01*
X118356Y329514D01*
X118546Y329564D01*
X118737Y329610D01*
X118929Y329650D01*
X119122Y329686D01*
X119316Y329717D01*
X119511Y329744D01*
X119706Y329765D01*
X119901Y329782D01*
X120097Y329794D01*
X120294Y329802D01*
X120490Y329804D01*
X120686Y329802D01*
X120883Y329794D01*
X121079Y329782D01*
X121274Y329765D01*
X121469Y329744D01*
X121664Y329717D01*
X121858Y329686D01*
X122051Y329650D01*
X122243Y329610D01*
X122434Y329564D01*
X122624Y329514D01*
X122812Y329460D01*
X122999Y329400D01*
X123185Y329336D01*
X123369Y329268D01*
X123551Y329195D01*
X123732Y329118D01*
X123910Y329036D01*
X124087Y328950D01*
X124261Y328859D01*
X124433Y328765D01*
X124603Y328666D01*
X124770Y328563D01*
X124935Y328456D01*
X125096Y328345D01*
X125256Y328230D01*
X125412Y328111D01*
X125565Y327988D01*
X125715Y327862D01*
X125862Y327732D01*
X126006Y327598D01*
X126147Y327461D01*
X126284Y327320D01*
X126418Y327176D01*
X126548Y327029D01*
X126674Y326879D01*
X126797Y326726D01*
X126916Y326570D01*
X127031Y326410D01*
X127142Y326249D01*
X127249Y326084D01*
X127352Y325917D01*
X127451Y325747D01*
X127545Y325575D01*
X127636Y325401D01*
X127722Y325224D01*
X127804Y325046D01*
X127881Y324865D01*
X127954Y324683D01*
X128022Y324499D01*
X128086Y324313D01*
X128146Y324126D01*
X128200Y323938D01*
X128250Y323748D01*
X128296Y323557D01*
X128336Y323365D01*
X128372Y323172D01*
X128403Y322978D01*
X128430Y322783D01*
X128451Y322588D01*
X128468Y322393D01*
X128480Y322197D01*
X128488Y322000D01*
X128490Y321804D01*
X128488Y321608D01*
X128480Y321411D01*
X128468Y321215D01*
X128451Y321020D01*
X128430Y320825D01*
X128403Y320630D01*
X128372Y320436D01*
X128336Y320243D01*
X128296Y320051D01*
X128250Y319860D01*
X128200Y319670D01*
X128146Y319482D01*
X128086Y319295D01*
X128022Y319109D01*
X127954Y318925D01*
X127881Y318743D01*
X127804Y318562D01*
X127722Y318384D01*
X127636Y318207D01*
X127545Y318033D01*
X127451Y317861D01*
X127352Y317691D01*
X127249Y317524D01*
X127142Y317359D01*
X127031Y317198D01*
X126916Y317038D01*
X126797Y316882D01*
X126674Y316729D01*
X126548Y316579D01*
X126418Y316432D01*
X126284Y316288D01*
X126147Y316147D01*
X126006Y316010D01*
X125862Y315876D01*
X125715Y315746D01*
X125565Y315620D01*
X125412Y315497D01*
X125256Y315378D01*
X125096Y315263D01*
X124935Y315152D01*
X124770Y315045D01*
X124603Y314942D01*
X124433Y314843D01*
X124261Y314749D01*
X124087Y314658D01*
X123910Y314572D01*
X123732Y314490D01*
X123551Y314413D01*
X123369Y314340D01*
X123185Y314272D01*
X122999Y314208D01*
X122812Y314148D01*
X122624Y314094D01*
X122434Y314044D01*
X122243Y313998D01*
X122051Y313958D01*
X121858Y313922D01*
X121664Y313891D01*
X121469Y313864D01*
X121274Y313843D01*
X121079Y313826D01*
X120883Y313814D01*
X120686Y313806D01*
X120490Y313804D01*
X120294Y313806D01*
X120097Y313814D01*
X119901Y313826D01*
X119706Y313843D01*
X119511Y313864D01*
X119316Y313891D01*
X119122Y313922D01*
X118929Y313958D01*
X118737Y313998D01*
X118546Y314044D01*
X118356Y314094D01*
X118168Y314148D01*
X117981Y314208D01*
X117795Y314272D01*
X117611Y314340D01*
X117429Y314413D01*
X117248Y314490D01*
X117070Y314572D01*
X116893Y314658D01*
X116719Y314749D01*
X116547Y314843D01*
X116377Y314942D01*
X116210Y315045D01*
X116045Y315152D01*
X115884Y315263D01*
X115724Y315378D01*
X115568Y315497D01*
X115415Y315620D01*
X115265Y315746D01*
X115118Y315876D01*
X114974Y316010D01*
X114833Y316147D01*
X114696Y316288D01*
X114562Y316432D01*
X114432Y316579D01*
X114306Y316729D01*
X114183Y316882D01*
X114064Y317038D01*
X113949Y317198D01*
X113838Y317359D01*
X113731Y317524D01*
X113628Y317691D01*
X113529Y317861D01*
X113435Y318033D01*
X113344Y318207D01*
X113258Y318384D01*
X113176Y318562D01*
X113099Y318743D01*
X113026Y318925D01*
X112958Y319109D01*
X112894Y319295D01*
X112834Y319482D01*
X112780Y319670D01*
X112730Y319860D01*
X112684Y320051D01*
X112644Y320243D01*
X112608Y320436D01*
X112577Y320630D01*
X112550Y320825D01*
X112529Y321020D01*
X112512Y321215D01*
X112500Y321411D01*
X112492Y321608D01*
X112490Y321804D01*
X182490Y321804D02*
X182492Y322000D01*
X182500Y322197D01*
X182512Y322393D01*
X182529Y322588D01*
X182550Y322783D01*
X182577Y322978D01*
X182608Y323172D01*
X182644Y323365D01*
X182684Y323557D01*
X182730Y323748D01*
X182780Y323938D01*
X182834Y324126D01*
X182894Y324313D01*
X182958Y324499D01*
X183026Y324683D01*
X183099Y324865D01*
X183176Y325046D01*
X183258Y325224D01*
X183344Y325401D01*
X183435Y325575D01*
X183529Y325747D01*
X183628Y325917D01*
X183731Y326084D01*
X183838Y326249D01*
X183949Y326410D01*
X184064Y326570D01*
X184183Y326726D01*
X184306Y326879D01*
X184432Y327029D01*
X184562Y327176D01*
X184696Y327320D01*
X184833Y327461D01*
X184974Y327598D01*
X185118Y327732D01*
X185265Y327862D01*
X185415Y327988D01*
X185568Y328111D01*
X185724Y328230D01*
X185884Y328345D01*
X186045Y328456D01*
X186210Y328563D01*
X186377Y328666D01*
X186547Y328765D01*
X186719Y328859D01*
X186893Y328950D01*
X187070Y329036D01*
X187248Y329118D01*
X187429Y329195D01*
X187611Y329268D01*
X187795Y329336D01*
X187981Y329400D01*
X188168Y329460D01*
X188356Y329514D01*
X188546Y329564D01*
X188737Y329610D01*
X188929Y329650D01*
X189122Y329686D01*
X189316Y329717D01*
X189511Y329744D01*
X189706Y329765D01*
X189901Y329782D01*
X190097Y329794D01*
X190294Y329802D01*
X190490Y329804D01*
X190686Y329802D01*
X190883Y329794D01*
X191079Y329782D01*
X191274Y329765D01*
X191469Y329744D01*
X191664Y329717D01*
X191858Y329686D01*
X192051Y329650D01*
X192243Y329610D01*
X192434Y329564D01*
X192624Y329514D01*
X192812Y329460D01*
X192999Y329400D01*
X193185Y329336D01*
X193369Y329268D01*
X193551Y329195D01*
X193732Y329118D01*
X193910Y329036D01*
X194087Y328950D01*
X194261Y328859D01*
X194433Y328765D01*
X194603Y328666D01*
X194770Y328563D01*
X194935Y328456D01*
X195096Y328345D01*
X195256Y328230D01*
X195412Y328111D01*
X195565Y327988D01*
X195715Y327862D01*
X195862Y327732D01*
X196006Y327598D01*
X196147Y327461D01*
X196284Y327320D01*
X196418Y327176D01*
X196548Y327029D01*
X196674Y326879D01*
X196797Y326726D01*
X196916Y326570D01*
X197031Y326410D01*
X197142Y326249D01*
X197249Y326084D01*
X197352Y325917D01*
X197451Y325747D01*
X197545Y325575D01*
X197636Y325401D01*
X197722Y325224D01*
X197804Y325046D01*
X197881Y324865D01*
X197954Y324683D01*
X198022Y324499D01*
X198086Y324313D01*
X198146Y324126D01*
X198200Y323938D01*
X198250Y323748D01*
X198296Y323557D01*
X198336Y323365D01*
X198372Y323172D01*
X198403Y322978D01*
X198430Y322783D01*
X198451Y322588D01*
X198468Y322393D01*
X198480Y322197D01*
X198488Y322000D01*
X198490Y321804D01*
X198488Y321608D01*
X198480Y321411D01*
X198468Y321215D01*
X198451Y321020D01*
X198430Y320825D01*
X198403Y320630D01*
X198372Y320436D01*
X198336Y320243D01*
X198296Y320051D01*
X198250Y319860D01*
X198200Y319670D01*
X198146Y319482D01*
X198086Y319295D01*
X198022Y319109D01*
X197954Y318925D01*
X197881Y318743D01*
X197804Y318562D01*
X197722Y318384D01*
X197636Y318207D01*
X197545Y318033D01*
X197451Y317861D01*
X197352Y317691D01*
X197249Y317524D01*
X197142Y317359D01*
X197031Y317198D01*
X196916Y317038D01*
X196797Y316882D01*
X196674Y316729D01*
X196548Y316579D01*
X196418Y316432D01*
X196284Y316288D01*
X196147Y316147D01*
X196006Y316010D01*
X195862Y315876D01*
X195715Y315746D01*
X195565Y315620D01*
X195412Y315497D01*
X195256Y315378D01*
X195096Y315263D01*
X194935Y315152D01*
X194770Y315045D01*
X194603Y314942D01*
X194433Y314843D01*
X194261Y314749D01*
X194087Y314658D01*
X193910Y314572D01*
X193732Y314490D01*
X193551Y314413D01*
X193369Y314340D01*
X193185Y314272D01*
X192999Y314208D01*
X192812Y314148D01*
X192624Y314094D01*
X192434Y314044D01*
X192243Y313998D01*
X192051Y313958D01*
X191858Y313922D01*
X191664Y313891D01*
X191469Y313864D01*
X191274Y313843D01*
X191079Y313826D01*
X190883Y313814D01*
X190686Y313806D01*
X190490Y313804D01*
X190294Y313806D01*
X190097Y313814D01*
X189901Y313826D01*
X189706Y313843D01*
X189511Y313864D01*
X189316Y313891D01*
X189122Y313922D01*
X188929Y313958D01*
X188737Y313998D01*
X188546Y314044D01*
X188356Y314094D01*
X188168Y314148D01*
X187981Y314208D01*
X187795Y314272D01*
X187611Y314340D01*
X187429Y314413D01*
X187248Y314490D01*
X187070Y314572D01*
X186893Y314658D01*
X186719Y314749D01*
X186547Y314843D01*
X186377Y314942D01*
X186210Y315045D01*
X186045Y315152D01*
X185884Y315263D01*
X185724Y315378D01*
X185568Y315497D01*
X185415Y315620D01*
X185265Y315746D01*
X185118Y315876D01*
X184974Y316010D01*
X184833Y316147D01*
X184696Y316288D01*
X184562Y316432D01*
X184432Y316579D01*
X184306Y316729D01*
X184183Y316882D01*
X184064Y317038D01*
X183949Y317198D01*
X183838Y317359D01*
X183731Y317524D01*
X183628Y317691D01*
X183529Y317861D01*
X183435Y318033D01*
X183344Y318207D01*
X183258Y318384D01*
X183176Y318562D01*
X183099Y318743D01*
X183026Y318925D01*
X182958Y319109D01*
X182894Y319295D01*
X182834Y319482D01*
X182780Y319670D01*
X182730Y319860D01*
X182684Y320051D01*
X182644Y320243D01*
X182608Y320436D01*
X182577Y320630D01*
X182550Y320825D01*
X182529Y321020D01*
X182512Y321215D01*
X182500Y321411D01*
X182492Y321608D01*
X182490Y321804D01*
X103590Y73660D02*
X103594Y73967D01*
X103605Y74273D01*
X103624Y74580D01*
X103650Y74885D01*
X103684Y75190D01*
X103725Y75494D01*
X103774Y75797D01*
X103830Y76099D01*
X103894Y76399D01*
X103965Y76697D01*
X104043Y76994D01*
X104128Y77289D01*
X104221Y77581D01*
X104321Y77871D01*
X104428Y78159D01*
X104542Y78444D01*
X104662Y78726D01*
X104790Y79004D01*
X104925Y79280D01*
X105066Y79552D01*
X105214Y79821D01*
X105368Y80086D01*
X105529Y80347D01*
X105697Y80605D01*
X105870Y80858D01*
X106050Y81106D01*
X106236Y81350D01*
X106427Y81590D01*
X106625Y81825D01*
X106828Y82054D01*
X107037Y82279D01*
X107251Y82499D01*
X107471Y82713D01*
X107696Y82922D01*
X107925Y83125D01*
X108160Y83323D01*
X108400Y83514D01*
X108644Y83700D01*
X108892Y83880D01*
X109145Y84053D01*
X109403Y84221D01*
X109664Y84382D01*
X109929Y84536D01*
X110198Y84684D01*
X110470Y84825D01*
X110746Y84960D01*
X111024Y85088D01*
X111306Y85208D01*
X111591Y85322D01*
X111879Y85429D01*
X112169Y85529D01*
X112461Y85622D01*
X112756Y85707D01*
X113053Y85785D01*
X113351Y85856D01*
X113651Y85920D01*
X113953Y85976D01*
X114256Y86025D01*
X114560Y86066D01*
X114865Y86100D01*
X115170Y86126D01*
X115477Y86145D01*
X115783Y86156D01*
X116090Y86160D01*
X116397Y86156D01*
X116703Y86145D01*
X117010Y86126D01*
X117315Y86100D01*
X117620Y86066D01*
X117924Y86025D01*
X118227Y85976D01*
X118529Y85920D01*
X118829Y85856D01*
X119127Y85785D01*
X119424Y85707D01*
X119719Y85622D01*
X120011Y85529D01*
X120301Y85429D01*
X120589Y85322D01*
X120874Y85208D01*
X121156Y85088D01*
X121434Y84960D01*
X121710Y84825D01*
X121982Y84684D01*
X122251Y84536D01*
X122516Y84382D01*
X122777Y84221D01*
X123035Y84053D01*
X123288Y83880D01*
X123536Y83700D01*
X123780Y83514D01*
X124020Y83323D01*
X124255Y83125D01*
X124484Y82922D01*
X124709Y82713D01*
X124929Y82499D01*
X125143Y82279D01*
X125352Y82054D01*
X125555Y81825D01*
X125753Y81590D01*
X125944Y81350D01*
X126130Y81106D01*
X126310Y80858D01*
X126483Y80605D01*
X126651Y80347D01*
X126812Y80086D01*
X126966Y79821D01*
X127114Y79552D01*
X127255Y79280D01*
X127390Y79004D01*
X127518Y78726D01*
X127638Y78444D01*
X127752Y78159D01*
X127859Y77871D01*
X127959Y77581D01*
X128052Y77289D01*
X128137Y76994D01*
X128215Y76697D01*
X128286Y76399D01*
X128350Y76099D01*
X128406Y75797D01*
X128455Y75494D01*
X128496Y75190D01*
X128530Y74885D01*
X128556Y74580D01*
X128575Y74273D01*
X128586Y73967D01*
X128590Y73660D01*
X128586Y73353D01*
X128575Y73047D01*
X128556Y72740D01*
X128530Y72435D01*
X128496Y72130D01*
X128455Y71826D01*
X128406Y71523D01*
X128350Y71221D01*
X128286Y70921D01*
X128215Y70623D01*
X128137Y70326D01*
X128052Y70031D01*
X127959Y69739D01*
X127859Y69449D01*
X127752Y69161D01*
X127638Y68876D01*
X127518Y68594D01*
X127390Y68316D01*
X127255Y68040D01*
X127114Y67768D01*
X126966Y67499D01*
X126812Y67234D01*
X126651Y66973D01*
X126483Y66715D01*
X126310Y66462D01*
X126130Y66214D01*
X125944Y65970D01*
X125753Y65730D01*
X125555Y65495D01*
X125352Y65266D01*
X125143Y65041D01*
X124929Y64821D01*
X124709Y64607D01*
X124484Y64398D01*
X124255Y64195D01*
X124020Y63997D01*
X123780Y63806D01*
X123536Y63620D01*
X123288Y63440D01*
X123035Y63267D01*
X122777Y63099D01*
X122516Y62938D01*
X122251Y62784D01*
X121982Y62636D01*
X121710Y62495D01*
X121434Y62360D01*
X121156Y62232D01*
X120874Y62112D01*
X120589Y61998D01*
X120301Y61891D01*
X120011Y61791D01*
X119719Y61698D01*
X119424Y61613D01*
X119127Y61535D01*
X118829Y61464D01*
X118529Y61400D01*
X118227Y61344D01*
X117924Y61295D01*
X117620Y61254D01*
X117315Y61220D01*
X117010Y61194D01*
X116703Y61175D01*
X116397Y61164D01*
X116090Y61160D01*
X115783Y61164D01*
X115477Y61175D01*
X115170Y61194D01*
X114865Y61220D01*
X114560Y61254D01*
X114256Y61295D01*
X113953Y61344D01*
X113651Y61400D01*
X113351Y61464D01*
X113053Y61535D01*
X112756Y61613D01*
X112461Y61698D01*
X112169Y61791D01*
X111879Y61891D01*
X111591Y61998D01*
X111306Y62112D01*
X111024Y62232D01*
X110746Y62360D01*
X110470Y62495D01*
X110198Y62636D01*
X109929Y62784D01*
X109664Y62938D01*
X109403Y63099D01*
X109145Y63267D01*
X108892Y63440D01*
X108644Y63620D01*
X108400Y63806D01*
X108160Y63997D01*
X107925Y64195D01*
X107696Y64398D01*
X107471Y64607D01*
X107251Y64821D01*
X107037Y65041D01*
X106828Y65266D01*
X106625Y65495D01*
X106427Y65730D01*
X106236Y65970D01*
X106050Y66214D01*
X105870Y66462D01*
X105697Y66715D01*
X105529Y66973D01*
X105368Y67234D01*
X105214Y67499D01*
X105066Y67768D01*
X104925Y68040D01*
X104790Y68316D01*
X104662Y68594D01*
X104542Y68876D01*
X104428Y69161D01*
X104321Y69449D01*
X104221Y69739D01*
X104128Y70031D01*
X104043Y70326D01*
X103965Y70623D01*
X103894Y70921D01*
X103830Y71221D01*
X103774Y71523D01*
X103725Y71826D01*
X103684Y72130D01*
X103650Y72435D01*
X103624Y72740D01*
X103605Y73047D01*
X103594Y73353D01*
X103590Y73660D01*
X103590Y-423340D02*
X103594Y-423033D01*
X103605Y-422727D01*
X103624Y-422420D01*
X103650Y-422115D01*
X103684Y-421810D01*
X103725Y-421506D01*
X103774Y-421203D01*
X103830Y-420901D01*
X103894Y-420601D01*
X103965Y-420303D01*
X104043Y-420006D01*
X104128Y-419711D01*
X104221Y-419419D01*
X104321Y-419129D01*
X104428Y-418841D01*
X104542Y-418556D01*
X104662Y-418274D01*
X104790Y-417996D01*
X104925Y-417720D01*
X105066Y-417448D01*
X105214Y-417179D01*
X105368Y-416914D01*
X105529Y-416653D01*
X105697Y-416395D01*
X105870Y-416142D01*
X106050Y-415894D01*
X106236Y-415650D01*
X106427Y-415410D01*
X106625Y-415175D01*
X106828Y-414946D01*
X107037Y-414721D01*
X107251Y-414501D01*
X107471Y-414287D01*
X107696Y-414078D01*
X107925Y-413875D01*
X108160Y-413677D01*
X108400Y-413486D01*
X108644Y-413300D01*
X108892Y-413120D01*
X109145Y-412947D01*
X109403Y-412779D01*
X109664Y-412618D01*
X109929Y-412464D01*
X110198Y-412316D01*
X110470Y-412175D01*
X110746Y-412040D01*
X111024Y-411912D01*
X111306Y-411792D01*
X111591Y-411678D01*
X111879Y-411571D01*
X112169Y-411471D01*
X112461Y-411378D01*
X112756Y-411293D01*
X113053Y-411215D01*
X113351Y-411144D01*
X113651Y-411080D01*
X113953Y-411024D01*
X114256Y-410975D01*
X114560Y-410934D01*
X114865Y-410900D01*
X115170Y-410874D01*
X115477Y-410855D01*
X115783Y-410844D01*
X116090Y-410840D01*
X116397Y-410844D01*
X116703Y-410855D01*
X117010Y-410874D01*
X117315Y-410900D01*
X117620Y-410934D01*
X117924Y-410975D01*
X118227Y-411024D01*
X118529Y-411080D01*
X118829Y-411144D01*
X119127Y-411215D01*
X119424Y-411293D01*
X119719Y-411378D01*
X120011Y-411471D01*
X120301Y-411571D01*
X120589Y-411678D01*
X120874Y-411792D01*
X121156Y-411912D01*
X121434Y-412040D01*
X121710Y-412175D01*
X121982Y-412316D01*
X122251Y-412464D01*
X122516Y-412618D01*
X122777Y-412779D01*
X123035Y-412947D01*
X123288Y-413120D01*
X123536Y-413300D01*
X123780Y-413486D01*
X124020Y-413677D01*
X124255Y-413875D01*
X124484Y-414078D01*
X124709Y-414287D01*
X124929Y-414501D01*
X125143Y-414721D01*
X125352Y-414946D01*
X125555Y-415175D01*
X125753Y-415410D01*
X125944Y-415650D01*
X126130Y-415894D01*
X126310Y-416142D01*
X126483Y-416395D01*
X126651Y-416653D01*
X126812Y-416914D01*
X126966Y-417179D01*
X127114Y-417448D01*
X127255Y-417720D01*
X127390Y-417996D01*
X127518Y-418274D01*
X127638Y-418556D01*
X127752Y-418841D01*
X127859Y-419129D01*
X127959Y-419419D01*
X128052Y-419711D01*
X128137Y-420006D01*
X128215Y-420303D01*
X128286Y-420601D01*
X128350Y-420901D01*
X128406Y-421203D01*
X128455Y-421506D01*
X128496Y-421810D01*
X128530Y-422115D01*
X128556Y-422420D01*
X128575Y-422727D01*
X128586Y-423033D01*
X128590Y-423340D01*
X128586Y-423647D01*
X128575Y-423953D01*
X128556Y-424260D01*
X128530Y-424565D01*
X128496Y-424870D01*
X128455Y-425174D01*
X128406Y-425477D01*
X128350Y-425779D01*
X128286Y-426079D01*
X128215Y-426377D01*
X128137Y-426674D01*
X128052Y-426969D01*
X127959Y-427261D01*
X127859Y-427551D01*
X127752Y-427839D01*
X127638Y-428124D01*
X127518Y-428406D01*
X127390Y-428684D01*
X127255Y-428960D01*
X127114Y-429232D01*
X126966Y-429501D01*
X126812Y-429766D01*
X126651Y-430027D01*
X126483Y-430285D01*
X126310Y-430538D01*
X126130Y-430786D01*
X125944Y-431030D01*
X125753Y-431270D01*
X125555Y-431505D01*
X125352Y-431734D01*
X125143Y-431959D01*
X124929Y-432179D01*
X124709Y-432393D01*
X124484Y-432602D01*
X124255Y-432805D01*
X124020Y-433003D01*
X123780Y-433194D01*
X123536Y-433380D01*
X123288Y-433560D01*
X123035Y-433733D01*
X122777Y-433901D01*
X122516Y-434062D01*
X122251Y-434216D01*
X121982Y-434364D01*
X121710Y-434505D01*
X121434Y-434640D01*
X121156Y-434768D01*
X120874Y-434888D01*
X120589Y-435002D01*
X120301Y-435109D01*
X120011Y-435209D01*
X119719Y-435302D01*
X119424Y-435387D01*
X119127Y-435465D01*
X118829Y-435536D01*
X118529Y-435600D01*
X118227Y-435656D01*
X117924Y-435705D01*
X117620Y-435746D01*
X117315Y-435780D01*
X117010Y-435806D01*
X116703Y-435825D01*
X116397Y-435836D01*
X116090Y-435840D01*
X115783Y-435836D01*
X115477Y-435825D01*
X115170Y-435806D01*
X114865Y-435780D01*
X114560Y-435746D01*
X114256Y-435705D01*
X113953Y-435656D01*
X113651Y-435600D01*
X113351Y-435536D01*
X113053Y-435465D01*
X112756Y-435387D01*
X112461Y-435302D01*
X112169Y-435209D01*
X111879Y-435109D01*
X111591Y-435002D01*
X111306Y-434888D01*
X111024Y-434768D01*
X110746Y-434640D01*
X110470Y-434505D01*
X110198Y-434364D01*
X109929Y-434216D01*
X109664Y-434062D01*
X109403Y-433901D01*
X109145Y-433733D01*
X108892Y-433560D01*
X108644Y-433380D01*
X108400Y-433194D01*
X108160Y-433003D01*
X107925Y-432805D01*
X107696Y-432602D01*
X107471Y-432393D01*
X107251Y-432179D01*
X107037Y-431959D01*
X106828Y-431734D01*
X106625Y-431505D01*
X106427Y-431270D01*
X106236Y-431030D01*
X106050Y-430786D01*
X105870Y-430538D01*
X105697Y-430285D01*
X105529Y-430027D01*
X105368Y-429766D01*
X105214Y-429501D01*
X105066Y-429232D01*
X104925Y-428960D01*
X104790Y-428684D01*
X104662Y-428406D01*
X104542Y-428124D01*
X104428Y-427839D01*
X104321Y-427551D01*
X104221Y-427261D01*
X104128Y-426969D01*
X104043Y-426674D01*
X103965Y-426377D01*
X103894Y-426079D01*
X103830Y-425779D01*
X103774Y-425477D01*
X103725Y-425174D01*
X103684Y-424870D01*
X103650Y-424565D01*
X103624Y-424260D01*
X103605Y-423953D01*
X103594Y-423647D01*
X103590Y-423340D01*
X803590Y-423340D02*
X803594Y-423033D01*
X803605Y-422727D01*
X803624Y-422420D01*
X803650Y-422115D01*
X803684Y-421810D01*
X803725Y-421506D01*
X803774Y-421203D01*
X803830Y-420901D01*
X803894Y-420601D01*
X803965Y-420303D01*
X804043Y-420006D01*
X804128Y-419711D01*
X804221Y-419419D01*
X804321Y-419129D01*
X804428Y-418841D01*
X804542Y-418556D01*
X804662Y-418274D01*
X804790Y-417996D01*
X804925Y-417720D01*
X805066Y-417448D01*
X805214Y-417179D01*
X805368Y-416914D01*
X805529Y-416653D01*
X805697Y-416395D01*
X805870Y-416142D01*
X806050Y-415894D01*
X806236Y-415650D01*
X806427Y-415410D01*
X806625Y-415175D01*
X806828Y-414946D01*
X807037Y-414721D01*
X807251Y-414501D01*
X807471Y-414287D01*
X807696Y-414078D01*
X807925Y-413875D01*
X808160Y-413677D01*
X808400Y-413486D01*
X808644Y-413300D01*
X808892Y-413120D01*
X809145Y-412947D01*
X809403Y-412779D01*
X809664Y-412618D01*
X809929Y-412464D01*
X810198Y-412316D01*
X810470Y-412175D01*
X810746Y-412040D01*
X811024Y-411912D01*
X811306Y-411792D01*
X811591Y-411678D01*
X811879Y-411571D01*
X812169Y-411471D01*
X812461Y-411378D01*
X812756Y-411293D01*
X813053Y-411215D01*
X813351Y-411144D01*
X813651Y-411080D01*
X813953Y-411024D01*
X814256Y-410975D01*
X814560Y-410934D01*
X814865Y-410900D01*
X815170Y-410874D01*
X815477Y-410855D01*
X815783Y-410844D01*
X816090Y-410840D01*
X816397Y-410844D01*
X816703Y-410855D01*
X817010Y-410874D01*
X817315Y-410900D01*
X817620Y-410934D01*
X817924Y-410975D01*
X818227Y-411024D01*
X818529Y-411080D01*
X818829Y-411144D01*
X819127Y-411215D01*
X819424Y-411293D01*
X819719Y-411378D01*
X820011Y-411471D01*
X820301Y-411571D01*
X820589Y-411678D01*
X820874Y-411792D01*
X821156Y-411912D01*
X821434Y-412040D01*
X821710Y-412175D01*
X821982Y-412316D01*
X822251Y-412464D01*
X822516Y-412618D01*
X822777Y-412779D01*
X823035Y-412947D01*
X823288Y-413120D01*
X823536Y-413300D01*
X823780Y-413486D01*
X824020Y-413677D01*
X824255Y-413875D01*
X824484Y-414078D01*
X824709Y-414287D01*
X824929Y-414501D01*
X825143Y-414721D01*
X825352Y-414946D01*
X825555Y-415175D01*
X825753Y-415410D01*
X825944Y-415650D01*
X826130Y-415894D01*
X826310Y-416142D01*
X826483Y-416395D01*
X826651Y-416653D01*
X826812Y-416914D01*
X826966Y-417179D01*
X827114Y-417448D01*
X827255Y-417720D01*
X827390Y-417996D01*
X827518Y-418274D01*
X827638Y-418556D01*
X827752Y-418841D01*
X827859Y-419129D01*
X827959Y-419419D01*
X828052Y-419711D01*
X828137Y-420006D01*
X828215Y-420303D01*
X828286Y-420601D01*
X828350Y-420901D01*
X828406Y-421203D01*
X828455Y-421506D01*
X828496Y-421810D01*
X828530Y-422115D01*
X828556Y-422420D01*
X828575Y-422727D01*
X828586Y-423033D01*
X828590Y-423340D01*
X828586Y-423647D01*
X828575Y-423953D01*
X828556Y-424260D01*
X828530Y-424565D01*
X828496Y-424870D01*
X828455Y-425174D01*
X828406Y-425477D01*
X828350Y-425779D01*
X828286Y-426079D01*
X828215Y-426377D01*
X828137Y-426674D01*
X828052Y-426969D01*
X827959Y-427261D01*
X827859Y-427551D01*
X827752Y-427839D01*
X827638Y-428124D01*
X827518Y-428406D01*
X827390Y-428684D01*
X827255Y-428960D01*
X827114Y-429232D01*
X826966Y-429501D01*
X826812Y-429766D01*
X826651Y-430027D01*
X826483Y-430285D01*
X826310Y-430538D01*
X826130Y-430786D01*
X825944Y-431030D01*
X825753Y-431270D01*
X825555Y-431505D01*
X825352Y-431734D01*
X825143Y-431959D01*
X824929Y-432179D01*
X824709Y-432393D01*
X824484Y-432602D01*
X824255Y-432805D01*
X824020Y-433003D01*
X823780Y-433194D01*
X823536Y-433380D01*
X823288Y-433560D01*
X823035Y-433733D01*
X822777Y-433901D01*
X822516Y-434062D01*
X822251Y-434216D01*
X821982Y-434364D01*
X821710Y-434505D01*
X821434Y-434640D01*
X821156Y-434768D01*
X820874Y-434888D01*
X820589Y-435002D01*
X820301Y-435109D01*
X820011Y-435209D01*
X819719Y-435302D01*
X819424Y-435387D01*
X819127Y-435465D01*
X818829Y-435536D01*
X818529Y-435600D01*
X818227Y-435656D01*
X817924Y-435705D01*
X817620Y-435746D01*
X817315Y-435780D01*
X817010Y-435806D01*
X816703Y-435825D01*
X816397Y-435836D01*
X816090Y-435840D01*
X815783Y-435836D01*
X815477Y-435825D01*
X815170Y-435806D01*
X814865Y-435780D01*
X814560Y-435746D01*
X814256Y-435705D01*
X813953Y-435656D01*
X813651Y-435600D01*
X813351Y-435536D01*
X813053Y-435465D01*
X812756Y-435387D01*
X812461Y-435302D01*
X812169Y-435209D01*
X811879Y-435109D01*
X811591Y-435002D01*
X811306Y-434888D01*
X811024Y-434768D01*
X810746Y-434640D01*
X810470Y-434505D01*
X810198Y-434364D01*
X809929Y-434216D01*
X809664Y-434062D01*
X809403Y-433901D01*
X809145Y-433733D01*
X808892Y-433560D01*
X808644Y-433380D01*
X808400Y-433194D01*
X808160Y-433003D01*
X807925Y-432805D01*
X807696Y-432602D01*
X807471Y-432393D01*
X807251Y-432179D01*
X807037Y-431959D01*
X806828Y-431734D01*
X806625Y-431505D01*
X806427Y-431270D01*
X806236Y-431030D01*
X806050Y-430786D01*
X805870Y-430538D01*
X805697Y-430285D01*
X805529Y-430027D01*
X805368Y-429766D01*
X805214Y-429501D01*
X805066Y-429232D01*
X804925Y-428960D01*
X804790Y-428684D01*
X804662Y-428406D01*
X804542Y-428124D01*
X804428Y-427839D01*
X804321Y-427551D01*
X804221Y-427261D01*
X804128Y-426969D01*
X804043Y-426674D01*
X803965Y-426377D01*
X803894Y-426079D01*
X803830Y-425779D01*
X803774Y-425477D01*
X803725Y-425174D01*
X803684Y-424870D01*
X803650Y-424565D01*
X803624Y-424260D01*
X803605Y-423953D01*
X803594Y-423647D01*
X803590Y-423340D01*
X803590Y73660D02*
X803594Y73967D01*
X803605Y74273D01*
X803624Y74580D01*
X803650Y74885D01*
X803684Y75190D01*
X803725Y75494D01*
X803774Y75797D01*
X803830Y76099D01*
X803894Y76399D01*
X803965Y76697D01*
X804043Y76994D01*
X804128Y77289D01*
X804221Y77581D01*
X804321Y77871D01*
X804428Y78159D01*
X804542Y78444D01*
X804662Y78726D01*
X804790Y79004D01*
X804925Y79280D01*
X805066Y79552D01*
X805214Y79821D01*
X805368Y80086D01*
X805529Y80347D01*
X805697Y80605D01*
X805870Y80858D01*
X806050Y81106D01*
X806236Y81350D01*
X806427Y81590D01*
X806625Y81825D01*
X806828Y82054D01*
X807037Y82279D01*
X807251Y82499D01*
X807471Y82713D01*
X807696Y82922D01*
X807925Y83125D01*
X808160Y83323D01*
X808400Y83514D01*
X808644Y83700D01*
X808892Y83880D01*
X809145Y84053D01*
X809403Y84221D01*
X809664Y84382D01*
X809929Y84536D01*
X810198Y84684D01*
X810470Y84825D01*
X810746Y84960D01*
X811024Y85088D01*
X811306Y85208D01*
X811591Y85322D01*
X811879Y85429D01*
X812169Y85529D01*
X812461Y85622D01*
X812756Y85707D01*
X813053Y85785D01*
X813351Y85856D01*
X813651Y85920D01*
X813953Y85976D01*
X814256Y86025D01*
X814560Y86066D01*
X814865Y86100D01*
X815170Y86126D01*
X815477Y86145D01*
X815783Y86156D01*
X816090Y86160D01*
X816397Y86156D01*
X816703Y86145D01*
X817010Y86126D01*
X817315Y86100D01*
X817620Y86066D01*
X817924Y86025D01*
X818227Y85976D01*
X818529Y85920D01*
X818829Y85856D01*
X819127Y85785D01*
X819424Y85707D01*
X819719Y85622D01*
X820011Y85529D01*
X820301Y85429D01*
X820589Y85322D01*
X820874Y85208D01*
X821156Y85088D01*
X821434Y84960D01*
X821710Y84825D01*
X821982Y84684D01*
X822251Y84536D01*
X822516Y84382D01*
X822777Y84221D01*
X823035Y84053D01*
X823288Y83880D01*
X823536Y83700D01*
X823780Y83514D01*
X824020Y83323D01*
X824255Y83125D01*
X824484Y82922D01*
X824709Y82713D01*
X824929Y82499D01*
X825143Y82279D01*
X825352Y82054D01*
X825555Y81825D01*
X825753Y81590D01*
X825944Y81350D01*
X826130Y81106D01*
X826310Y80858D01*
X826483Y80605D01*
X826651Y80347D01*
X826812Y80086D01*
X826966Y79821D01*
X827114Y79552D01*
X827255Y79280D01*
X827390Y79004D01*
X827518Y78726D01*
X827638Y78444D01*
X827752Y78159D01*
X827859Y77871D01*
X827959Y77581D01*
X828052Y77289D01*
X828137Y76994D01*
X828215Y76697D01*
X828286Y76399D01*
X828350Y76099D01*
X828406Y75797D01*
X828455Y75494D01*
X828496Y75190D01*
X828530Y74885D01*
X828556Y74580D01*
X828575Y74273D01*
X828586Y73967D01*
X828590Y73660D01*
X828586Y73353D01*
X828575Y73047D01*
X828556Y72740D01*
X828530Y72435D01*
X828496Y72130D01*
X828455Y71826D01*
X828406Y71523D01*
X828350Y71221D01*
X828286Y70921D01*
X828215Y70623D01*
X828137Y70326D01*
X828052Y70031D01*
X827959Y69739D01*
X827859Y69449D01*
X827752Y69161D01*
X827638Y68876D01*
X827518Y68594D01*
X827390Y68316D01*
X827255Y68040D01*
X827114Y67768D01*
X826966Y67499D01*
X826812Y67234D01*
X826651Y66973D01*
X826483Y66715D01*
X826310Y66462D01*
X826130Y66214D01*
X825944Y65970D01*
X825753Y65730D01*
X825555Y65495D01*
X825352Y65266D01*
X825143Y65041D01*
X824929Y64821D01*
X824709Y64607D01*
X824484Y64398D01*
X824255Y64195D01*
X824020Y63997D01*
X823780Y63806D01*
X823536Y63620D01*
X823288Y63440D01*
X823035Y63267D01*
X822777Y63099D01*
X822516Y62938D01*
X822251Y62784D01*
X821982Y62636D01*
X821710Y62495D01*
X821434Y62360D01*
X821156Y62232D01*
X820874Y62112D01*
X820589Y61998D01*
X820301Y61891D01*
X820011Y61791D01*
X819719Y61698D01*
X819424Y61613D01*
X819127Y61535D01*
X818829Y61464D01*
X818529Y61400D01*
X818227Y61344D01*
X817924Y61295D01*
X817620Y61254D01*
X817315Y61220D01*
X817010Y61194D01*
X816703Y61175D01*
X816397Y61164D01*
X816090Y61160D01*
X815783Y61164D01*
X815477Y61175D01*
X815170Y61194D01*
X814865Y61220D01*
X814560Y61254D01*
X814256Y61295D01*
X813953Y61344D01*
X813651Y61400D01*
X813351Y61464D01*
X813053Y61535D01*
X812756Y61613D01*
X812461Y61698D01*
X812169Y61791D01*
X811879Y61891D01*
X811591Y61998D01*
X811306Y62112D01*
X811024Y62232D01*
X810746Y62360D01*
X810470Y62495D01*
X810198Y62636D01*
X809929Y62784D01*
X809664Y62938D01*
X809403Y63099D01*
X809145Y63267D01*
X808892Y63440D01*
X808644Y63620D01*
X808400Y63806D01*
X808160Y63997D01*
X807925Y64195D01*
X807696Y64398D01*
X807471Y64607D01*
X807251Y64821D01*
X807037Y65041D01*
X806828Y65266D01*
X806625Y65495D01*
X806427Y65730D01*
X806236Y65970D01*
X806050Y66214D01*
X805870Y66462D01*
X805697Y66715D01*
X805529Y66973D01*
X805368Y67234D01*
X805214Y67499D01*
X805066Y67768D01*
X804925Y68040D01*
X804790Y68316D01*
X804662Y68594D01*
X804542Y68876D01*
X804428Y69161D01*
X804321Y69449D01*
X804221Y69739D01*
X804128Y70031D01*
X804043Y70326D01*
X803965Y70623D01*
X803894Y70921D01*
X803830Y71221D01*
X803774Y71523D01*
X803725Y71826D01*
X803684Y72130D01*
X803650Y72435D01*
X803624Y72740D01*
X803605Y73047D01*
X803594Y73353D01*
X803590Y73660D01*
X1008380Y-73660D02*
X1008385Y-73255D01*
X1008400Y-72850D01*
X1008425Y-72445D01*
X1008460Y-72042D01*
X1008504Y-71639D01*
X1008559Y-71237D01*
X1008623Y-70837D01*
X1008697Y-70439D01*
X1008781Y-70043D01*
X1008875Y-69648D01*
X1008978Y-69257D01*
X1009091Y-68867D01*
X1009213Y-68481D01*
X1009345Y-68098D01*
X1009486Y-67718D01*
X1009637Y-67342D01*
X1009796Y-66969D01*
X1009965Y-66601D01*
X1010143Y-66237D01*
X1010329Y-65877D01*
X1010525Y-65522D01*
X1010729Y-65172D01*
X1010941Y-64827D01*
X1011162Y-64488D01*
X1011392Y-64153D01*
X1011629Y-63825D01*
X1011874Y-63503D01*
X1012128Y-63186D01*
X1012388Y-62876D01*
X1012657Y-62573D01*
X1012933Y-62276D01*
X1013216Y-61986D01*
X1013506Y-61703D01*
X1013803Y-61427D01*
X1014106Y-61158D01*
X1014416Y-60898D01*
X1014733Y-60644D01*
X1015055Y-60399D01*
X1015383Y-60162D01*
X1015718Y-59932D01*
X1016057Y-59711D01*
X1016402Y-59499D01*
X1016752Y-59295D01*
X1017107Y-59099D01*
X1017467Y-58913D01*
X1017831Y-58735D01*
X1018199Y-58566D01*
X1018572Y-58407D01*
X1018948Y-58256D01*
X1019328Y-58115D01*
X1019711Y-57983D01*
X1020097Y-57861D01*
X1020487Y-57748D01*
X1020878Y-57645D01*
X1021273Y-57551D01*
X1021669Y-57467D01*
X1022067Y-57393D01*
X1022467Y-57329D01*
X1022869Y-57274D01*
X1023272Y-57230D01*
X1023675Y-57195D01*
X1024080Y-57170D01*
X1024485Y-57155D01*
X1024890Y-57150D01*
X1025295Y-57155D01*
X1025700Y-57170D01*
X1026105Y-57195D01*
X1026508Y-57230D01*
X1026911Y-57274D01*
X1027313Y-57329D01*
X1027713Y-57393D01*
X1028111Y-57467D01*
X1028507Y-57551D01*
X1028902Y-57645D01*
X1029293Y-57748D01*
X1029683Y-57861D01*
X1030069Y-57983D01*
X1030452Y-58115D01*
X1030832Y-58256D01*
X1031208Y-58407D01*
X1031581Y-58566D01*
X1031949Y-58735D01*
X1032313Y-58913D01*
X1032673Y-59099D01*
X1033028Y-59295D01*
X1033378Y-59499D01*
X1033723Y-59711D01*
X1034062Y-59932D01*
X1034397Y-60162D01*
X1034725Y-60399D01*
X1035047Y-60644D01*
X1035364Y-60898D01*
X1035674Y-61158D01*
X1035977Y-61427D01*
X1036274Y-61703D01*
X1036564Y-61986D01*
X1036847Y-62276D01*
X1037123Y-62573D01*
X1037392Y-62876D01*
X1037652Y-63186D01*
X1037906Y-63503D01*
X1038151Y-63825D01*
X1038388Y-64153D01*
X1038618Y-64488D01*
X1038839Y-64827D01*
X1039051Y-65172D01*
X1039255Y-65522D01*
X1039451Y-65877D01*
X1039637Y-66237D01*
X1039815Y-66601D01*
X1039984Y-66969D01*
X1040143Y-67342D01*
X1040294Y-67718D01*
X1040435Y-68098D01*
X1040567Y-68481D01*
X1040689Y-68867D01*
X1040802Y-69257D01*
X1040905Y-69648D01*
X1040999Y-70043D01*
X1041083Y-70439D01*
X1041157Y-70837D01*
X1041221Y-71237D01*
X1041276Y-71639D01*
X1041320Y-72042D01*
X1041355Y-72445D01*
X1041380Y-72850D01*
X1041395Y-73255D01*
X1041400Y-73660D01*
X1041395Y-74065D01*
X1041380Y-74470D01*
X1041355Y-74875D01*
X1041320Y-75278D01*
X1041276Y-75681D01*
X1041221Y-76083D01*
X1041157Y-76483D01*
X1041083Y-76881D01*
X1040999Y-77277D01*
X1040905Y-77672D01*
X1040802Y-78063D01*
X1040689Y-78453D01*
X1040567Y-78839D01*
X1040435Y-79222D01*
X1040294Y-79602D01*
X1040143Y-79978D01*
X1039984Y-80351D01*
X1039815Y-80719D01*
X1039637Y-81083D01*
X1039451Y-81443D01*
X1039255Y-81798D01*
X1039051Y-82148D01*
X1038839Y-82493D01*
X1038618Y-82832D01*
X1038388Y-83167D01*
X1038151Y-83495D01*
X1037906Y-83817D01*
X1037652Y-84134D01*
X1037392Y-84444D01*
X1037123Y-84747D01*
X1036847Y-85044D01*
X1036564Y-85334D01*
X1036274Y-85617D01*
X1035977Y-85893D01*
X1035674Y-86162D01*
X1035364Y-86422D01*
X1035047Y-86676D01*
X1034725Y-86921D01*
X1034397Y-87158D01*
X1034062Y-87388D01*
X1033723Y-87609D01*
X1033378Y-87821D01*
X1033028Y-88025D01*
X1032673Y-88221D01*
X1032313Y-88407D01*
X1031949Y-88585D01*
X1031581Y-88754D01*
X1031208Y-88913D01*
X1030832Y-89064D01*
X1030452Y-89205D01*
X1030069Y-89337D01*
X1029683Y-89459D01*
X1029293Y-89572D01*
X1028902Y-89675D01*
X1028507Y-89769D01*
X1028111Y-89853D01*
X1027713Y-89927D01*
X1027313Y-89991D01*
X1026911Y-90046D01*
X1026508Y-90090D01*
X1026105Y-90125D01*
X1025700Y-90150D01*
X1025295Y-90165D01*
X1024890Y-90170D01*
X1024485Y-90165D01*
X1024080Y-90150D01*
X1023675Y-90125D01*
X1023272Y-90090D01*
X1022869Y-90046D01*
X1022467Y-89991D01*
X1022067Y-89927D01*
X1021669Y-89853D01*
X1021273Y-89769D01*
X1020878Y-89675D01*
X1020487Y-89572D01*
X1020097Y-89459D01*
X1019711Y-89337D01*
X1019328Y-89205D01*
X1018948Y-89064D01*
X1018572Y-88913D01*
X1018199Y-88754D01*
X1017831Y-88585D01*
X1017467Y-88407D01*
X1017107Y-88221D01*
X1016752Y-88025D01*
X1016402Y-87821D01*
X1016057Y-87609D01*
X1015718Y-87388D01*
X1015383Y-87158D01*
X1015055Y-86921D01*
X1014733Y-86676D01*
X1014416Y-86422D01*
X1014106Y-86162D01*
X1013803Y-85893D01*
X1013506Y-85617D01*
X1013216Y-85334D01*
X1012933Y-85044D01*
X1012657Y-84747D01*
X1012388Y-84444D01*
X1012128Y-84134D01*
X1011874Y-83817D01*
X1011629Y-83495D01*
X1011392Y-83167D01*
X1011162Y-82832D01*
X1010941Y-82493D01*
X1010729Y-82148D01*
X1010525Y-81798D01*
X1010329Y-81443D01*
X1010143Y-81083D01*
X1009965Y-80719D01*
X1009796Y-80351D01*
X1009637Y-79978D01*
X1009486Y-79602D01*
X1009345Y-79222D01*
X1009213Y-78839D01*
X1009091Y-78453D01*
X1008978Y-78063D01*
X1008875Y-77672D01*
X1008781Y-77277D01*
X1008697Y-76881D01*
X1008623Y-76483D01*
X1008559Y-76083D01*
X1008504Y-75681D01*
X1008460Y-75278D01*
X1008425Y-74875D01*
X1008400Y-74470D01*
X1008385Y-74065D01*
X1008380Y-73660D01*
D11*
X307647Y547800D02*
X307647Y569800D01*
X286713Y569800D02*
X286713Y547800D01*
D12*
X314505Y547657D02*
X314505Y550253D01*
X314505Y547657D02*
X314507Y547558D01*
X314513Y547458D01*
X314522Y547359D01*
X314535Y547261D01*
X314552Y547163D01*
X314573Y547065D01*
X314598Y546969D01*
X314626Y546874D01*
X314658Y546780D01*
X314693Y546687D01*
X314732Y546595D01*
X314775Y546505D01*
X314820Y546417D01*
X314870Y546330D01*
X314922Y546246D01*
X314978Y546163D01*
X315036Y546083D01*
X315098Y546005D01*
X315163Y545930D01*
X315231Y545857D01*
X315301Y545787D01*
X315374Y545719D01*
X315449Y545654D01*
X315527Y545592D01*
X315607Y545534D01*
X315690Y545478D01*
X315774Y545426D01*
X315861Y545376D01*
X315949Y545331D01*
X316039Y545288D01*
X316131Y545249D01*
X316224Y545214D01*
X316318Y545182D01*
X316413Y545154D01*
X316509Y545129D01*
X316607Y545108D01*
X316705Y545091D01*
X316803Y545078D01*
X316902Y545069D01*
X317002Y545063D01*
X317101Y545061D01*
X317101Y545060D02*
X323593Y545060D01*
X323593Y545061D02*
X323692Y545063D01*
X323792Y545069D01*
X323891Y545078D01*
X323989Y545091D01*
X324087Y545108D01*
X324185Y545129D01*
X324281Y545154D01*
X324376Y545182D01*
X324470Y545214D01*
X324563Y545249D01*
X324655Y545288D01*
X324745Y545331D01*
X324833Y545376D01*
X324920Y545426D01*
X325004Y545478D01*
X325087Y545534D01*
X325167Y545592D01*
X325245Y545654D01*
X325320Y545719D01*
X325393Y545787D01*
X325463Y545857D01*
X325531Y545930D01*
X325596Y546005D01*
X325658Y546083D01*
X325716Y546163D01*
X325772Y546246D01*
X325824Y546330D01*
X325874Y546417D01*
X325919Y546505D01*
X325962Y546595D01*
X326001Y546687D01*
X326036Y546779D01*
X326068Y546874D01*
X326096Y546969D01*
X326121Y547065D01*
X326142Y547163D01*
X326159Y547261D01*
X326172Y547359D01*
X326181Y547458D01*
X326187Y547558D01*
X326189Y547657D01*
X326189Y550253D01*
X314505Y554619D02*
X314505Y557864D01*
X314507Y557977D01*
X314513Y558090D01*
X314523Y558203D01*
X314537Y558316D01*
X314554Y558428D01*
X314576Y558539D01*
X314601Y558649D01*
X314631Y558759D01*
X314664Y558867D01*
X314701Y558974D01*
X314741Y559080D01*
X314786Y559184D01*
X314834Y559287D01*
X314885Y559388D01*
X314940Y559487D01*
X314998Y559584D01*
X315060Y559679D01*
X315125Y559772D01*
X315193Y559862D01*
X315264Y559950D01*
X315339Y560036D01*
X315416Y560119D01*
X315496Y560199D01*
X315579Y560276D01*
X315665Y560351D01*
X315753Y560422D01*
X315843Y560490D01*
X315936Y560555D01*
X316031Y560617D01*
X316128Y560675D01*
X316227Y560730D01*
X316328Y560781D01*
X316431Y560829D01*
X316535Y560874D01*
X316641Y560914D01*
X316748Y560951D01*
X316856Y560984D01*
X316966Y561014D01*
X317076Y561039D01*
X317187Y561061D01*
X317299Y561078D01*
X317412Y561092D01*
X317525Y561102D01*
X317638Y561108D01*
X317751Y561110D01*
X317864Y561108D01*
X317977Y561102D01*
X318090Y561092D01*
X318203Y561078D01*
X318315Y561061D01*
X318426Y561039D01*
X318536Y561014D01*
X318646Y560984D01*
X318754Y560951D01*
X318861Y560914D01*
X318967Y560874D01*
X319071Y560829D01*
X319174Y560781D01*
X319275Y560730D01*
X319374Y560675D01*
X319471Y560617D01*
X319566Y560555D01*
X319659Y560490D01*
X319749Y560422D01*
X319837Y560351D01*
X319923Y560276D01*
X320006Y560199D01*
X320086Y560119D01*
X320163Y560036D01*
X320238Y559950D01*
X320309Y559862D01*
X320377Y559772D01*
X320442Y559679D01*
X320504Y559584D01*
X320562Y559487D01*
X320617Y559388D01*
X320668Y559287D01*
X320716Y559184D01*
X320761Y559080D01*
X320801Y558974D01*
X320838Y558867D01*
X320871Y558759D01*
X320901Y558649D01*
X320926Y558539D01*
X320948Y558428D01*
X320965Y558316D01*
X320979Y558203D01*
X320989Y558090D01*
X320995Y557977D01*
X320997Y557864D01*
X326189Y558513D02*
X326189Y554619D01*
X326189Y558513D02*
X326187Y558614D01*
X326181Y558714D01*
X326171Y558814D01*
X326158Y558914D01*
X326140Y559013D01*
X326119Y559112D01*
X326094Y559209D01*
X326065Y559306D01*
X326032Y559401D01*
X325996Y559495D01*
X325956Y559587D01*
X325913Y559678D01*
X325866Y559767D01*
X325816Y559854D01*
X325762Y559940D01*
X325705Y560023D01*
X325645Y560103D01*
X325582Y560182D01*
X325515Y560258D01*
X325446Y560331D01*
X325374Y560401D01*
X325300Y560469D01*
X325223Y560534D01*
X325143Y560595D01*
X325061Y560654D01*
X324977Y560709D01*
X324891Y560761D01*
X324803Y560810D01*
X324713Y560855D01*
X324621Y560897D01*
X324528Y560935D01*
X324433Y560969D01*
X324338Y561000D01*
X324241Y561027D01*
X324143Y561050D01*
X324044Y561070D01*
X323944Y561085D01*
X323844Y561097D01*
X323744Y561105D01*
X323643Y561109D01*
X323543Y561109D01*
X323442Y561105D01*
X323342Y561097D01*
X323242Y561085D01*
X323142Y561070D01*
X323043Y561050D01*
X322945Y561027D01*
X322848Y561000D01*
X322753Y560969D01*
X322658Y560935D01*
X322565Y560897D01*
X322473Y560855D01*
X322383Y560810D01*
X322295Y560761D01*
X322209Y560709D01*
X322125Y560654D01*
X322043Y560595D01*
X321963Y560534D01*
X321886Y560469D01*
X321812Y560401D01*
X321740Y560331D01*
X321671Y560258D01*
X321604Y560182D01*
X321541Y560103D01*
X321481Y560023D01*
X321424Y559940D01*
X321370Y559854D01*
X321320Y559767D01*
X321273Y559678D01*
X321230Y559587D01*
X321190Y559495D01*
X321154Y559401D01*
X321121Y559306D01*
X321092Y559209D01*
X321067Y559112D01*
X321046Y559013D01*
X321028Y558914D01*
X321015Y558814D01*
X321005Y558714D01*
X320999Y558614D01*
X320997Y558513D01*
X320996Y558513D02*
X320996Y555917D01*
X314505Y566049D02*
X314505Y569294D01*
X314507Y569407D01*
X314513Y569520D01*
X314523Y569633D01*
X314537Y569746D01*
X314554Y569858D01*
X314576Y569969D01*
X314601Y570079D01*
X314631Y570189D01*
X314664Y570297D01*
X314701Y570404D01*
X314741Y570510D01*
X314786Y570614D01*
X314834Y570717D01*
X314885Y570818D01*
X314940Y570917D01*
X314998Y571014D01*
X315060Y571109D01*
X315125Y571202D01*
X315193Y571292D01*
X315264Y571380D01*
X315339Y571466D01*
X315416Y571549D01*
X315496Y571629D01*
X315579Y571706D01*
X315665Y571781D01*
X315753Y571852D01*
X315843Y571920D01*
X315936Y571985D01*
X316031Y572047D01*
X316128Y572105D01*
X316227Y572160D01*
X316328Y572211D01*
X316431Y572259D01*
X316535Y572304D01*
X316641Y572344D01*
X316748Y572381D01*
X316856Y572414D01*
X316966Y572444D01*
X317076Y572469D01*
X317187Y572491D01*
X317299Y572508D01*
X317412Y572522D01*
X317525Y572532D01*
X317638Y572538D01*
X317751Y572540D01*
X317864Y572538D01*
X317977Y572532D01*
X318090Y572522D01*
X318203Y572508D01*
X318315Y572491D01*
X318426Y572469D01*
X318536Y572444D01*
X318646Y572414D01*
X318754Y572381D01*
X318861Y572344D01*
X318967Y572304D01*
X319071Y572259D01*
X319174Y572211D01*
X319275Y572160D01*
X319374Y572105D01*
X319471Y572047D01*
X319566Y571985D01*
X319659Y571920D01*
X319749Y571852D01*
X319837Y571781D01*
X319923Y571706D01*
X320006Y571629D01*
X320086Y571549D01*
X320163Y571466D01*
X320238Y571380D01*
X320309Y571292D01*
X320377Y571202D01*
X320442Y571109D01*
X320504Y571014D01*
X320562Y570917D01*
X320617Y570818D01*
X320668Y570717D01*
X320716Y570614D01*
X320761Y570510D01*
X320801Y570404D01*
X320838Y570297D01*
X320871Y570189D01*
X320901Y570079D01*
X320926Y569969D01*
X320948Y569858D01*
X320965Y569746D01*
X320979Y569633D01*
X320989Y569520D01*
X320995Y569407D01*
X320997Y569294D01*
X326189Y569943D02*
X326189Y566049D01*
X326189Y569943D02*
X326187Y570044D01*
X326181Y570144D01*
X326171Y570244D01*
X326158Y570344D01*
X326140Y570443D01*
X326119Y570542D01*
X326094Y570639D01*
X326065Y570736D01*
X326032Y570831D01*
X325996Y570925D01*
X325956Y571017D01*
X325913Y571108D01*
X325866Y571197D01*
X325816Y571284D01*
X325762Y571370D01*
X325705Y571453D01*
X325645Y571533D01*
X325582Y571612D01*
X325515Y571688D01*
X325446Y571761D01*
X325374Y571831D01*
X325300Y571899D01*
X325223Y571964D01*
X325143Y572025D01*
X325061Y572084D01*
X324977Y572139D01*
X324891Y572191D01*
X324803Y572240D01*
X324713Y572285D01*
X324621Y572327D01*
X324528Y572365D01*
X324433Y572399D01*
X324338Y572430D01*
X324241Y572457D01*
X324143Y572480D01*
X324044Y572500D01*
X323944Y572515D01*
X323844Y572527D01*
X323744Y572535D01*
X323643Y572539D01*
X323543Y572539D01*
X323442Y572535D01*
X323342Y572527D01*
X323242Y572515D01*
X323142Y572500D01*
X323043Y572480D01*
X322945Y572457D01*
X322848Y572430D01*
X322753Y572399D01*
X322658Y572365D01*
X322565Y572327D01*
X322473Y572285D01*
X322383Y572240D01*
X322295Y572191D01*
X322209Y572139D01*
X322125Y572084D01*
X322043Y572025D01*
X321963Y571964D01*
X321886Y571899D01*
X321812Y571831D01*
X321740Y571761D01*
X321671Y571688D01*
X321604Y571612D01*
X321541Y571533D01*
X321481Y571453D01*
X321424Y571370D01*
X321370Y571284D01*
X321320Y571197D01*
X321273Y571108D01*
X321230Y571017D01*
X321190Y570925D01*
X321154Y570831D01*
X321121Y570736D01*
X321092Y570639D01*
X321067Y570542D01*
X321046Y570443D01*
X321028Y570344D01*
X321015Y570244D01*
X321005Y570144D01*
X320999Y570044D01*
X320997Y569943D01*
X320996Y569943D02*
X320996Y567347D01*
M02*
