M48
;GenerationSoftware,Autodesk,EAGLE,9.6.1*%
;CreationDate,2020-12-06T06:24:47Z*%
FMAT,2
ICI,OFF
METRIC,TZ,000.000
T16C0.381
T15C0.749
T14C0.813
T13C0.914
T12C1.000
T11C1.016
T10C1.118
T9C1.270
T8C1.500
T7C1.600
T6C1.803
T5C2.000
T4C2.500
T3C2.540
T2C3.302
%
G90
M71
T2
X102489Y-7366
T3
X105032Y-31492
X93032Y-31492
T4
X11609Y-42334
X81609Y7366
X81609Y-42334
X11609Y7366
T5
X20249Y29680
T6
X97028Y37211
X97028Y41910
X105156Y46609
X97028Y46609
X105156Y27178
X105156Y37211
X105156Y41910
X105156Y22479
X105156Y31877
T7
X12049Y32180
X19049Y32180
T8
X12849Y34680
X10949Y29680
T9
X96532Y-24492
X96532Y-38992
X101532Y-24492
X99032Y-38992
X101532Y-38992
T10
X105029Y7620
X99949Y7620
X102489Y7620
T11
X21082Y14986
X21082Y17526
X46228Y57023
X19050Y56134
X19050Y58420
X19050Y60960
X13462Y56134
X13462Y58420
X13462Y60960
X21082Y12446
X41402Y62484
X22123Y39726
X55499Y7366
X42799Y7366
X70739Y7366
X40259Y7366
X68199Y7366
X65659Y7366
X63119Y7366
X60579Y7366
X58039Y7366
X17043Y39726
X52959Y7366
X50419Y7366
X47879Y7366
X45339Y7366
X62992Y13208
X65532Y13208
X68072Y13208
X43688Y57023
X35179Y7366
X19583Y39726
X14503Y39726
X11963Y39726
X43688Y62484
X46228Y62484
X29591Y40513
X29591Y42799
X41402Y57023
X22479Y7366
X25019Y7366
X27559Y7366
X30099Y7366
X29591Y45339
X32639Y7366
X37719Y7366
T12
X58674Y19558
X56134Y19558
X53594Y19558
X51054Y19558
X48514Y19558
X45974Y19558
X43434Y19558
X58674Y50038
X56134Y50038
X53594Y50038
X51054Y50038
X48514Y50038
X45974Y50038
X36322Y44457
X43434Y50038
X92456Y11169
X104394Y60714
X33782Y44457
X33782Y35807
X95504Y21837
X95504Y19819
X95504Y11169
X92456Y30487
X92456Y21837
X92456Y19819
X104394Y54714
X71120Y32011
X71120Y23361
X71120Y21343
X71120Y12693
X74168Y32011
X74168Y23361
X74168Y21343
X74168Y12693
X36322Y35807
X95504Y30487
X99694Y57714
X96767Y50038
X105417Y50038
T13
X97155Y65405
X97155Y62865
X30048Y34112
X30048Y36652
T14
X71374Y39878
X79502Y22860
X79502Y20320
X79502Y17780
X79502Y15240
X79502Y12700
X24511Y62103
X68834Y39878
X70104Y37973
X35306Y56388
X87122Y20320
X35306Y64008
X37719Y64008
X82296Y47244
X61468Y58928
X63373Y57658
X61468Y56388
X69088Y58928
X70993Y57658
X69088Y56388
X53340Y58928
X55245Y57658
X53340Y56388
X79756Y39624
X82296Y39624
X79756Y47244
X37719Y56388
X87376Y39624
X84836Y39624
X84836Y47244
X87376Y47244
X79756Y53975
X82296Y53975
X79756Y61595
X82296Y61595
X87376Y53975
X84836Y53975
X84836Y61595
X87376Y61595
X79502Y27940
X30861Y52070
X30861Y54610
X23241Y54610
X23241Y52070
X30861Y57150
X30861Y59690
X23241Y57150
X23241Y59690
X87122Y12700
X87122Y27940
X87122Y30480
X87122Y17780
X79502Y25400
X87122Y25400
X87122Y22860
X79502Y30480
X87122Y15240
T15
X89154Y381
X91694Y2921
X94234Y381
T16
X26289Y52070
X36957Y14605
X34544Y32004
X19177Y22107
X18263Y24389
X12713Y24486
X10820Y24689
X31979Y27559
X32004Y31886
X30988Y27508
X31013Y31886
X27686Y22034
X36703Y18542
X28765Y21273
X35624Y18542
X28321Y20384
X34544Y18550
X24638Y15494
X30226Y14287
X24839Y14368
X27736Y14478
X25450Y13578
X28448Y13716
X26136Y12864
X27686Y12941
X27559Y1651
X65913Y-381
X20828Y21590
X20638Y24765
X84582Y26670
X26797Y31788
X79248Y8001
X76200Y43434
X76200Y44450
X67183Y51181
X67056Y47752
X68326Y51181
X68326Y47752
X36170Y28448
X36195Y26924
X82042Y29210
X76200Y42418
X19876Y24130
X20041Y20968
X28194Y23431
X34671Y27559
X35560Y22136
X37784Y18540
X72695Y6604
X73152Y508
X36576Y22504
X38609Y19114
X73685Y6604
X74168Y889
X37338Y23368
X39370Y19812
X74676Y6604
X75184Y889
X28802Y16512
X29845Y16383
X39370Y26924
X10109Y18034
X10922Y19050
X10934Y18009
X27432Y35245
X12141Y11963
X12116Y11176
X14859Y21082
X14859Y20320
X33274Y62025
X16891Y45706
X14859Y45706
X17272Y49925
X19812Y51195
X76976Y7366
X39370Y46990
X10109Y19050
X64770Y42672
X64897Y22860
X12827Y46941
X16649Y36513
X27432Y29972
X75692Y39991
X62484Y62498
X55245Y62498
X76454Y61228
X69342Y62498
X108585Y50038
X48895Y53975
X90424Y34622
X28829Y62244
X84582Y24130
X99949Y18415
X21717Y19812
X76261Y41275
X32830Y16129
X32929Y26302
X23419Y28067
X25273Y22225
X67437Y31689
X81341Y35941
X75819Y33909
X83124Y50546
X76007Y52705
X67757Y42799
X72070Y46990
X87503Y34022
X99949Y20447
X21463Y24130
X101727Y16891
X102743Y19177
X102743Y18161
X99949Y19431
X90424Y59182
X97470Y33020
X90424Y42813
X100584Y26731
X90424Y54723
X22606Y28091
X13042Y22661
X13106Y26579
X73787Y62498
X50292Y56962
X108112Y52578
M30