G04 EAGLE Gerber RS-274X export*
G75*
%MOMM*%
%FSLAX34Y34*%
%LPD*%
%INComponent side*%
%IPPOS*%
%AMOC8*
5,1,8,0,0,1.08239X$1,22.5*%
G01*
%ADD10C,1.574800*%
%ADD11R,1.000000X0.200000*%
%ADD12R,0.200000X1.000000*%
%ADD13P,1.732040X8X22.500000*%
%ADD14P,1.704548X8X202.500000*%
%ADD15C,1.778000*%
%ADD16C,1.762000*%
%ADD17P,1.704548X8X292.500000*%
%ADD18R,1.500000X1.300000*%
%ADD19R,1.300000X1.500000*%
%ADD20R,1.762000X1.762000*%
%ADD21C,1.762000*%
%ADD22P,1.704548X8X112.500000*%
%ADD23R,1.164600X1.465300*%
%ADD24C,2.705100*%
%ADD25R,2.000000X1.500000*%
%ADD26R,2.000000X3.800000*%
%ADD27C,3.000000*%
%ADD28C,2.262000*%
%ADD29C,1.676400*%
%ADD30R,1.500000X1.500000*%
%ADD31C,1.511300*%
%ADD32R,1.600000X1.803000*%
%ADD33C,1.879600*%
%ADD34R,0.940000X0.486000*%
%ADD35C,0.486000*%
%ADD36R,1.164600X1.815300*%
%ADD37R,1.000000X2.200000*%
%ADD38R,1.815300X1.164600*%
%ADD39R,1.465300X1.164600*%
%ADD40R,0.629100X0.560000*%
%ADD41R,0.560000X0.629100*%
%ADD42R,2.400000X1.900000*%
%ADD43R,2.000000X2.000000*%
%ADD44C,0.700000*%
%ADD45C,0.762000*%
%ADD46C,0.660400*%
%ADD47C,0.787400*%
%ADD48C,1.016000*%
%ADD49C,0.406400*%
%ADD50C,0.254000*%
%ADD51C,0.508000*%
%ADD52C,0.203200*%
%ADD53C,0.177800*%
%ADD54C,1.270000*%
%ADD55C,1.905000*%
%ADD56C,1.524000*%
%ADD57R,3.556000X3.556000*%

G36*
X1032620Y139715D02*
X1032620Y139715D01*
X1032747Y139723D01*
X1032778Y139733D01*
X1032810Y139737D01*
X1032929Y139782D01*
X1033049Y139821D01*
X1033077Y139838D01*
X1033107Y139850D01*
X1033211Y139923D01*
X1033318Y139991D01*
X1033340Y140015D01*
X1033367Y140034D01*
X1033449Y140130D01*
X1033536Y140223D01*
X1033552Y140251D01*
X1033573Y140276D01*
X1033628Y140390D01*
X1033690Y140501D01*
X1033698Y140533D01*
X1033712Y140562D01*
X1033737Y140686D01*
X1033769Y140809D01*
X1033772Y140856D01*
X1033776Y140873D01*
X1033775Y140895D01*
X1033779Y140970D01*
X1033779Y141340D01*
X1033767Y141438D01*
X1033764Y141537D01*
X1033747Y141595D01*
X1033739Y141655D01*
X1033703Y141747D01*
X1033675Y141842D01*
X1033645Y141894D01*
X1033622Y141951D01*
X1033564Y142031D01*
X1033514Y142116D01*
X1033448Y142191D01*
X1033436Y142208D01*
X1033426Y142216D01*
X1033408Y142237D01*
X1032101Y143543D01*
X1032101Y149877D01*
X1033408Y151183D01*
X1033468Y151261D01*
X1033536Y151333D01*
X1033565Y151386D01*
X1033602Y151434D01*
X1033642Y151525D01*
X1033690Y151612D01*
X1033705Y151670D01*
X1033729Y151726D01*
X1033744Y151824D01*
X1033769Y151920D01*
X1033775Y152020D01*
X1033779Y152040D01*
X1033777Y152052D01*
X1033779Y152080D01*
X1033779Y152263D01*
X1033767Y152361D01*
X1033764Y152460D01*
X1033747Y152518D01*
X1033739Y152578D01*
X1033703Y152670D01*
X1033675Y152766D01*
X1033645Y152818D01*
X1033622Y152874D01*
X1033564Y152954D01*
X1033514Y153040D01*
X1033448Y153115D01*
X1033436Y153132D01*
X1033426Y153139D01*
X1033408Y153160D01*
X1032101Y154467D01*
X1032101Y157953D01*
X1033408Y159260D01*
X1033468Y159338D01*
X1033536Y159410D01*
X1033565Y159463D01*
X1033602Y159511D01*
X1033642Y159602D01*
X1033690Y159688D01*
X1033705Y159747D01*
X1033729Y159803D01*
X1033744Y159901D01*
X1033769Y159996D01*
X1033775Y160096D01*
X1033779Y160117D01*
X1033777Y160129D01*
X1033779Y160157D01*
X1033779Y161763D01*
X1033767Y161861D01*
X1033764Y161960D01*
X1033747Y162018D01*
X1033739Y162078D01*
X1033703Y162170D01*
X1033675Y162266D01*
X1033645Y162318D01*
X1033622Y162374D01*
X1033564Y162454D01*
X1033514Y162540D01*
X1033448Y162615D01*
X1033436Y162632D01*
X1033426Y162639D01*
X1033408Y162660D01*
X1032101Y163967D01*
X1032101Y167453D01*
X1033408Y168760D01*
X1033468Y168838D01*
X1033536Y168910D01*
X1033565Y168963D01*
X1033602Y169011D01*
X1033642Y169102D01*
X1033690Y169188D01*
X1033705Y169247D01*
X1033729Y169303D01*
X1033744Y169401D01*
X1033769Y169496D01*
X1033775Y169596D01*
X1033779Y169617D01*
X1033777Y169629D01*
X1033779Y169657D01*
X1033779Y212090D01*
X1033764Y212208D01*
X1033757Y212327D01*
X1033744Y212365D01*
X1033739Y212406D01*
X1033696Y212516D01*
X1033659Y212629D01*
X1033637Y212664D01*
X1033622Y212701D01*
X1033553Y212797D01*
X1033489Y212898D01*
X1033459Y212926D01*
X1033436Y212959D01*
X1033344Y213035D01*
X1033257Y213116D01*
X1033222Y213136D01*
X1033191Y213161D01*
X1033083Y213212D01*
X1032979Y213270D01*
X1032939Y213280D01*
X1032903Y213297D01*
X1032786Y213319D01*
X1032671Y213349D01*
X1032611Y213353D01*
X1032591Y213357D01*
X1032570Y213355D01*
X1032510Y213359D01*
X994410Y213359D01*
X994292Y213344D01*
X994173Y213337D01*
X994135Y213324D01*
X994094Y213319D01*
X993984Y213276D01*
X993871Y213239D01*
X993836Y213217D01*
X993799Y213202D01*
X993703Y213133D01*
X993602Y213069D01*
X993574Y213039D01*
X993541Y213016D01*
X993466Y212924D01*
X993384Y212837D01*
X993364Y212802D01*
X993339Y212771D01*
X993288Y212663D01*
X993230Y212559D01*
X993220Y212519D01*
X993203Y212483D01*
X993181Y212366D01*
X993151Y212251D01*
X993147Y212191D01*
X993143Y212171D01*
X993145Y212150D01*
X993141Y212090D01*
X993141Y176530D01*
X993156Y176411D01*
X993163Y176292D01*
X993176Y176254D01*
X993181Y176214D01*
X993224Y176103D01*
X993261Y175990D01*
X993283Y175956D01*
X993298Y175918D01*
X993368Y175822D01*
X993431Y175721D01*
X993461Y175694D01*
X993484Y175661D01*
X993576Y175585D01*
X993663Y175503D01*
X993698Y175484D01*
X993729Y175458D01*
X993837Y175407D01*
X993942Y175350D01*
X993981Y175340D01*
X994017Y175323D01*
X994134Y175300D01*
X994250Y175270D01*
X994310Y175267D01*
X994330Y175263D01*
X994350Y175264D01*
X994410Y175260D01*
X1007844Y175263D01*
X1007844Y161798D01*
X1007859Y161680D01*
X1007866Y161561D01*
X1007878Y161523D01*
X1007883Y161482D01*
X1007927Y161372D01*
X1007964Y161259D01*
X1007986Y161224D01*
X1008000Y161187D01*
X1008070Y161091D01*
X1008134Y160990D01*
X1008164Y160962D01*
X1008187Y160929D01*
X1008279Y160853D01*
X1008366Y160772D01*
X1008401Y160752D01*
X1008432Y160727D01*
X1008540Y160676D01*
X1008644Y160618D01*
X1008683Y160608D01*
X1008720Y160591D01*
X1008837Y160569D01*
X1008952Y160539D01*
X1009012Y160535D01*
X1009032Y160531D01*
X1009053Y160533D01*
X1009113Y160529D01*
X1018189Y160529D01*
X1018226Y160508D01*
X1018285Y160493D01*
X1018340Y160469D01*
X1018438Y160454D01*
X1018534Y160429D01*
X1018634Y160423D01*
X1018654Y160419D01*
X1018667Y160421D01*
X1018695Y160419D01*
X1020283Y160419D01*
X1022749Y157953D01*
X1022749Y154467D01*
X1020640Y152358D01*
X1020566Y152263D01*
X1020488Y152174D01*
X1020469Y152138D01*
X1020445Y152106D01*
X1020397Y151997D01*
X1020343Y151891D01*
X1020334Y151852D01*
X1020318Y151814D01*
X1020300Y151697D01*
X1020274Y151581D01*
X1020275Y151540D01*
X1020268Y151500D01*
X1020280Y151382D01*
X1020283Y151263D01*
X1020294Y151224D01*
X1020298Y151184D01*
X1020339Y151071D01*
X1020372Y150957D01*
X1020392Y150923D01*
X1020406Y150884D01*
X1020473Y150786D01*
X1020533Y150683D01*
X1020573Y150638D01*
X1020584Y150621D01*
X1020600Y150608D01*
X1020640Y150563D01*
X1022749Y148453D01*
X1022749Y144967D01*
X1022723Y144940D01*
X1022662Y144862D01*
X1022594Y144790D01*
X1022565Y144737D01*
X1022528Y144689D01*
X1022488Y144598D01*
X1022440Y144512D01*
X1022425Y144453D01*
X1022401Y144397D01*
X1022386Y144300D01*
X1022361Y144204D01*
X1022355Y144104D01*
X1022351Y144083D01*
X1022353Y144071D01*
X1022351Y144043D01*
X1022351Y141083D01*
X1022365Y140973D01*
X1022370Y140862D01*
X1022384Y140815D01*
X1022391Y140767D01*
X1022431Y140664D01*
X1022464Y140558D01*
X1022490Y140517D01*
X1022508Y140472D01*
X1022573Y140382D01*
X1022631Y140287D01*
X1022666Y140254D01*
X1022694Y140214D01*
X1022780Y140143D01*
X1022860Y140066D01*
X1022902Y140042D01*
X1022939Y140011D01*
X1023040Y139964D01*
X1023136Y139909D01*
X1023183Y139897D01*
X1023227Y139876D01*
X1023336Y139855D01*
X1023443Y139826D01*
X1023518Y139820D01*
X1023539Y139816D01*
X1023557Y139817D01*
X1023604Y139814D01*
X1032494Y139701D01*
X1032620Y139715D01*
G37*
D10*
X316484Y520700D02*
X300736Y520700D01*
X300736Y546100D02*
X316484Y546100D01*
X240284Y546100D02*
X224536Y546100D01*
X224536Y520700D02*
X240284Y520700D01*
X300736Y571500D02*
X316484Y571500D01*
X316484Y596900D02*
X300736Y596900D01*
X240284Y571500D02*
X224536Y571500D01*
X224536Y596900D02*
X240284Y596900D01*
X863346Y127000D02*
X879094Y127000D01*
X879094Y152400D02*
X863346Y152400D01*
X863346Y279400D02*
X879094Y279400D01*
X879094Y304800D02*
X863346Y304800D01*
X863346Y177800D02*
X879094Y177800D01*
X879094Y203200D02*
X863346Y203200D01*
X863346Y254000D02*
X879094Y254000D01*
X879094Y228600D02*
X863346Y228600D01*
X802894Y304800D02*
X787146Y304800D01*
X787146Y279400D02*
X802894Y279400D01*
X802894Y254000D02*
X787146Y254000D01*
X787146Y228600D02*
X802894Y228600D01*
X802894Y203200D02*
X787146Y203200D01*
X787146Y177800D02*
X802894Y177800D01*
X802894Y152400D02*
X787146Y152400D01*
X787146Y127000D02*
X802894Y127000D01*
D11*
X231860Y253560D03*
X231860Y248560D03*
X231860Y243560D03*
X231860Y238560D03*
X231860Y233560D03*
X231860Y228560D03*
X231860Y223560D03*
X231860Y218560D03*
X231860Y213560D03*
X231860Y208560D03*
X231860Y203560D03*
X231860Y198560D03*
D12*
X249360Y181060D03*
X254360Y181060D03*
X259360Y181060D03*
X264360Y181060D03*
X269360Y181060D03*
X274360Y181060D03*
X279360Y181060D03*
X284360Y181060D03*
X289360Y181060D03*
X294360Y181060D03*
X299360Y181060D03*
X304360Y181060D03*
D11*
X321860Y198560D03*
X321860Y203560D03*
X321860Y208560D03*
X321860Y213560D03*
X321860Y218560D03*
X321860Y223560D03*
X321860Y228560D03*
X321860Y233560D03*
X321860Y238560D03*
X321860Y243560D03*
X321860Y248560D03*
X321860Y253560D03*
D12*
X304360Y271060D03*
X299360Y271060D03*
X294360Y271060D03*
X289360Y271060D03*
X284360Y271060D03*
X279360Y271060D03*
X274360Y271060D03*
X269360Y271060D03*
X264360Y271060D03*
X259360Y271060D03*
X254360Y271060D03*
X249360Y271060D03*
D13*
X245110Y621030D03*
D14*
X688340Y398780D03*
X701040Y379730D03*
X713740Y398780D03*
D15*
X462280Y561340D02*
X462280Y579120D01*
X436880Y579120D02*
X436880Y561340D01*
X414020Y561340D02*
X414020Y579120D01*
X304800Y453390D02*
X287020Y453390D01*
X287020Y427990D02*
X304800Y427990D01*
X304800Y405130D02*
X287020Y405130D01*
X462280Y615950D02*
X462280Y633730D01*
X436880Y633730D02*
X436880Y615950D01*
X414020Y615950D02*
X414020Y633730D01*
D16*
X434340Y509190D02*
X434340Y491570D01*
X459740Y491570D02*
X459740Y509190D01*
X485140Y509190D02*
X485140Y491570D01*
X510540Y491570D02*
X510540Y509190D01*
X535940Y509190D02*
X535940Y491570D01*
X561340Y491570D02*
X561340Y509190D01*
X586740Y509190D02*
X586740Y491570D01*
X434340Y204390D02*
X434340Y186770D01*
X459740Y186770D02*
X459740Y204390D01*
X485140Y204390D02*
X485140Y186770D01*
X510540Y186770D02*
X510540Y204390D01*
X535940Y204390D02*
X535940Y186770D01*
X561340Y186770D02*
X561340Y204390D01*
X586740Y204390D02*
X586740Y186770D01*
D10*
X873760Y608076D02*
X873760Y623824D01*
X848360Y623824D02*
X848360Y608076D01*
X848360Y547624D02*
X848360Y531876D01*
X873760Y531876D02*
X873760Y547624D01*
X822960Y608076D02*
X822960Y623824D01*
X797560Y623824D02*
X797560Y608076D01*
X822960Y547624D02*
X822960Y531876D01*
X797560Y531876D02*
X797560Y547624D01*
X873760Y480314D02*
X873760Y464566D01*
X848360Y464566D02*
X848360Y480314D01*
X848360Y404114D02*
X848360Y388366D01*
X873760Y388366D02*
X873760Y404114D01*
X822960Y464566D02*
X822960Y480314D01*
X797560Y480314D02*
X797560Y464566D01*
X822960Y404114D02*
X822960Y388366D01*
X797560Y388366D02*
X797560Y404114D01*
D17*
X533400Y563880D03*
X552450Y576580D03*
X533400Y589280D03*
X690880Y563880D03*
X709930Y576580D03*
X690880Y589280D03*
X614680Y563880D03*
X633730Y576580D03*
X614680Y589280D03*
D18*
X904240Y622910D03*
X904240Y603910D03*
D19*
X680110Y354330D03*
X699110Y354330D03*
X734670Y354330D03*
X715670Y354330D03*
D18*
X735330Y370230D03*
X735330Y389230D03*
D19*
X610260Y527050D03*
X629260Y527050D03*
D18*
X571500Y641960D03*
X571500Y622960D03*
X533400Y641960D03*
X533400Y622960D03*
D19*
X765150Y591820D03*
X746150Y591820D03*
X746150Y561340D03*
X765150Y561340D03*
D18*
X712470Y641960D03*
X712470Y622960D03*
X674370Y641960D03*
X674370Y622960D03*
X605790Y641960D03*
X605790Y622960D03*
X643890Y641960D03*
X643890Y622960D03*
X692150Y316890D03*
X692150Y335890D03*
X674370Y335890D03*
X674370Y316890D03*
D20*
X955040Y304870D03*
D21*
X955040Y218370D03*
D20*
X955040Y198190D03*
D21*
X955040Y111690D03*
D20*
X924560Y304870D03*
D21*
X924560Y218370D03*
D20*
X924560Y198190D03*
D21*
X924560Y111690D03*
D20*
X711200Y320110D03*
D21*
X711200Y233610D03*
D20*
X711200Y213430D03*
D21*
X711200Y126930D03*
D20*
X741680Y320110D03*
D21*
X741680Y233610D03*
D20*
X741680Y213430D03*
D21*
X741680Y126930D03*
D15*
X219710Y124460D02*
X201930Y124460D01*
X201930Y149860D02*
X219710Y149860D01*
X219710Y175260D02*
X201930Y175260D01*
D18*
X243078Y351638D03*
X243078Y332638D03*
X242824Y317094D03*
X242824Y298094D03*
D15*
X143510Y609600D02*
X125730Y609600D01*
X125730Y584200D02*
X143510Y584200D01*
X143510Y561340D02*
X125730Y561340D01*
D19*
X131470Y527050D03*
X150470Y527050D03*
D15*
X181610Y609600D02*
X199390Y609600D01*
X199390Y584200D02*
X181610Y584200D01*
X181610Y561340D02*
X199390Y561340D01*
D22*
X377190Y563880D03*
X377190Y640080D03*
X353060Y563880D03*
X353060Y640080D03*
D19*
X696570Y427990D03*
X677570Y427990D03*
X832460Y359410D03*
X813460Y359410D03*
D23*
X720226Y427990D03*
X737734Y427990D03*
D19*
X701700Y469900D03*
X720700Y469900D03*
X741070Y527050D03*
X760070Y527050D03*
X850240Y505460D03*
X831240Y505460D03*
D23*
X148454Y265430D03*
X130946Y265430D03*
X148454Y227330D03*
X130946Y227330D03*
D20*
X337820Y358070D03*
D21*
X337820Y444570D03*
D18*
X274320Y371450D03*
X274320Y352450D03*
D24*
X970280Y419100D03*
X970280Y372110D03*
X970280Y466090D03*
X1051560Y271780D03*
X1051560Y224790D03*
X1051560Y318770D03*
X1051560Y419100D03*
X1051560Y372110D03*
X1051560Y466090D03*
D18*
X765810Y221590D03*
X765810Y202590D03*
X762000Y306730D03*
X762000Y325730D03*
D25*
X105660Y185560D03*
X105660Y162560D03*
X105660Y139560D03*
D26*
X168660Y162560D03*
D27*
X202490Y296804D03*
D28*
X109490Y296804D03*
X128490Y346804D03*
D18*
X586740Y164440D03*
X586740Y145440D03*
D19*
X777900Y359410D03*
X796900Y359410D03*
D18*
X535940Y164440D03*
X535940Y145440D03*
X561340Y164440D03*
X561340Y145440D03*
D16*
X1035130Y547140D02*
X1052750Y547140D01*
X1052750Y607140D02*
X1035130Y607140D01*
X996940Y585950D02*
X996940Y568330D01*
D23*
X147710Y365125D03*
X165218Y365125D03*
D18*
X104648Y230149D03*
X104648Y249149D03*
D15*
X221234Y388366D02*
X221234Y406146D01*
X195834Y406146D02*
X195834Y388366D01*
X170434Y388366D02*
X170434Y406146D01*
X145034Y406146D02*
X145034Y388366D01*
X119634Y388366D02*
X119634Y406146D01*
D29*
X292100Y366522D02*
X308864Y366522D01*
X308864Y341122D02*
X292100Y341122D01*
X963168Y654050D02*
X979932Y654050D01*
X979932Y628650D02*
X963168Y628650D01*
D20*
X1054170Y500380D03*
D21*
X967670Y500380D03*
D19*
X965810Y330200D03*
X946810Y330200D03*
X986180Y228600D03*
X1005180Y228600D03*
X983640Y330200D03*
X1002640Y330200D03*
D23*
X1047614Y102870D03*
X1030106Y102870D03*
X103006Y115570D03*
X120514Y115570D03*
X998356Y102870D03*
X1015864Y102870D03*
X114164Y205740D03*
X96656Y205740D03*
D30*
X965200Y567970D03*
X965200Y602970D03*
X985520Y249200D03*
X985520Y284200D03*
X502920Y607340D03*
X502920Y642340D03*
D18*
X965200Y527710D03*
X965200Y546710D03*
X1005840Y267310D03*
X1005840Y248310D03*
X502920Y569620D03*
X502920Y588620D03*
D30*
X904240Y477800D03*
X904240Y512800D03*
D18*
X904240Y442620D03*
X904240Y461620D03*
D31*
X942340Y3810D03*
X891540Y3810D03*
X916940Y29210D03*
D15*
X224790Y64770D02*
X224790Y82550D01*
X250190Y82550D02*
X250190Y64770D01*
X275590Y64770D02*
X275590Y82550D01*
X300990Y82550D02*
X300990Y64770D01*
X326390Y64770D02*
X326390Y82550D01*
X351790Y82550D02*
X351790Y64770D01*
X377190Y64770D02*
X377190Y82550D01*
X427990Y82550D02*
X427990Y64770D01*
X707390Y64770D02*
X707390Y82550D01*
X402590Y82550D02*
X402590Y64770D01*
X681990Y64770D02*
X681990Y82550D01*
X656590Y82550D02*
X656590Y64770D01*
X631190Y64770D02*
X631190Y82550D01*
X605790Y82550D02*
X605790Y64770D01*
X580390Y64770D02*
X580390Y82550D01*
X554990Y82550D02*
X554990Y64770D01*
X529590Y64770D02*
X529590Y82550D01*
X504190Y82550D02*
X504190Y64770D01*
X478790Y64770D02*
X478790Y82550D01*
X453390Y82550D02*
X453390Y64770D01*
D32*
X172970Y115570D03*
X144530Y115570D03*
D33*
X1050290Y85598D02*
X1050290Y66802D01*
X1024890Y66802D02*
X1024890Y85598D01*
X999490Y85598D02*
X999490Y66802D01*
D34*
X1038580Y146710D03*
D35*
X1040850Y156210D02*
X1036310Y156210D01*
X1036310Y165710D02*
X1040850Y165710D01*
X1018540Y165710D02*
X1014000Y165710D01*
X1014000Y156210D02*
X1018540Y156210D01*
X1018540Y146710D02*
X1014000Y146710D01*
D23*
X980576Y207010D03*
X998084Y207010D03*
X1004706Y128270D03*
X1022214Y128270D03*
D36*
X1052344Y186690D03*
X1022836Y186690D03*
D37*
X978330Y161290D03*
X1000330Y161290D03*
D38*
X764540Y642134D03*
X764540Y612626D03*
D39*
X737870Y642484D03*
X737870Y624976D03*
X904240Y566556D03*
X904240Y584064D03*
X904240Y529726D03*
X904240Y547234D03*
X904240Y410346D03*
X904240Y427854D03*
X904240Y394834D03*
X904240Y377326D03*
X875030Y322716D03*
X875030Y340224D03*
D38*
X904240Y316716D03*
X904240Y346224D03*
D23*
X980576Y186690D03*
X998084Y186690D03*
D36*
X1025674Y525780D03*
X996166Y525780D03*
D38*
X756920Y369084D03*
X756920Y339576D03*
D15*
X629920Y140970D02*
X629920Y123190D01*
X655320Y123190D02*
X655320Y140970D01*
X680720Y140970D02*
X680720Y123190D01*
D40*
X217805Y207244D03*
X217805Y216936D03*
D41*
X317968Y263525D03*
X327660Y263525D03*
D40*
X242824Y269581D03*
X242824Y279273D03*
D39*
X325120Y177664D03*
X325120Y160156D03*
X229616Y263153D03*
X229616Y280661D03*
D40*
X311150Y180106D03*
X311150Y170414D03*
D42*
X171450Y227150D03*
X171450Y268150D03*
D23*
X1063612Y525780D03*
X1081120Y525780D03*
X130946Y207010D03*
X148454Y207010D03*
D20*
X363220Y358070D03*
D21*
X363220Y444570D03*
D38*
X311150Y644674D03*
X311150Y615166D03*
D39*
X332740Y638674D03*
X332740Y621166D03*
D18*
X334010Y602590D03*
X334010Y583590D03*
D19*
X351180Y543560D03*
X370180Y543560D03*
X320650Y492760D03*
X301650Y492760D03*
D18*
X358140Y466750D03*
X358140Y485750D03*
X358140Y520040D03*
X358140Y501040D03*
X339090Y520040D03*
X339090Y501040D03*
D39*
X148590Y439556D03*
X148590Y457064D03*
X168910Y439556D03*
X168910Y457064D03*
X198120Y529454D03*
X198120Y511946D03*
D38*
X172720Y529104D03*
X172720Y499596D03*
D25*
X195830Y486550D03*
X195830Y463550D03*
X195830Y440550D03*
D26*
X258830Y463550D03*
D39*
X339090Y486274D03*
X339090Y468766D03*
D23*
X787264Y73660D03*
X769756Y73660D03*
D43*
X393700Y469900D03*
X647700Y223520D03*
X647700Y426720D03*
X393700Y269240D03*
D38*
X128270Y439906D03*
X128270Y469414D03*
D44*
X354330Y243840D03*
X266700Y496570D03*
X223520Y624840D03*
D39*
X756920Y382406D03*
X756920Y399914D03*
X624840Y642484D03*
X624840Y624976D03*
X552450Y642484D03*
X552450Y624976D03*
X693420Y642484D03*
X693420Y624976D03*
D23*
X1068342Y500380D03*
X1085850Y500380D03*
D36*
X709444Y43180D03*
X679936Y43180D03*
D23*
X702174Y21590D03*
X684666Y21590D03*
D39*
X288290Y639944D03*
X288290Y622436D03*
D45*
X873760Y433070D02*
X890270Y449580D01*
X873760Y433070D02*
X873760Y396240D01*
D46*
X810260Y127000D02*
X795020Y127000D01*
X810260Y127000D02*
X845820Y162560D01*
X845820Y241300D01*
D47*
X845820Y241300D03*
X845820Y266700D03*
D46*
X873760Y383540D02*
X873760Y396240D01*
X873760Y383540D02*
X855980Y365760D01*
X845820Y312420D02*
X845820Y266700D01*
X845820Y312420D02*
X855980Y322580D01*
X855980Y365760D01*
D45*
X980576Y207010D02*
X980576Y186690D01*
X979170Y185284D01*
X979170Y168910D01*
D48*
X939800Y52070D02*
X792480Y52070D01*
D49*
X978330Y161290D02*
X978330Y168070D01*
X979170Y168910D01*
D48*
X977900Y102870D02*
X977900Y90170D01*
X977900Y102870D02*
X977900Y115570D01*
X977900Y160860D02*
X978330Y161290D01*
X977900Y160860D02*
X977900Y115570D01*
D45*
X792480Y80010D02*
X792480Y72390D01*
D47*
X792480Y80010D03*
D45*
X792480Y72390D02*
X792480Y52070D01*
D49*
X1038580Y119100D02*
X1038580Y146710D01*
X1035050Y115570D02*
X977900Y115570D01*
X1035050Y115570D02*
X1038580Y119100D01*
D45*
X904240Y394834D02*
X875166Y394834D01*
X873760Y396240D01*
X904240Y394834D02*
X904240Y410346D01*
X890270Y449580D02*
X890270Y527050D01*
X890270Y539750D01*
X890270Y558800D01*
X898026Y566556D02*
X904240Y566556D01*
X898026Y566556D02*
X890270Y558800D01*
X890270Y539750D02*
X873760Y539750D01*
X892946Y529726D02*
X904240Y529726D01*
X892946Y529726D02*
X890270Y527050D01*
D48*
X977900Y90170D02*
X939800Y52070D01*
X205740Y31750D02*
X144530Y92960D01*
X144530Y115570D01*
X136030Y139560D02*
X105660Y139560D01*
X144530Y131060D02*
X144530Y115570D01*
X144530Y131060D02*
X136030Y139560D01*
X103006Y136906D02*
X103006Y115570D01*
X103006Y136906D02*
X105660Y139560D01*
X998356Y102870D02*
X998356Y77334D01*
X999490Y76200D01*
X998356Y102870D02*
X977900Y102870D01*
D50*
X792480Y72390D02*
X788534Y72390D01*
X787264Y73660D01*
D48*
X709444Y71606D02*
X707390Y73660D01*
X709444Y71606D02*
X709444Y52070D01*
X709444Y43180D01*
X709444Y28860D02*
X702174Y21590D01*
X709444Y28860D02*
X709444Y43180D01*
X709444Y52070D02*
X792480Y52070D01*
X702174Y21590D02*
X702174Y10024D01*
X697230Y5080D01*
X671830Y5080D01*
X645160Y31750D01*
X377190Y31750D01*
X205740Y31750D01*
X377190Y31750D02*
X377190Y73660D01*
D51*
X873760Y615950D02*
X873760Y622300D01*
X873760Y615950D02*
X873760Y591820D01*
X848360Y566420D02*
X848360Y539750D01*
D47*
X762000Y434340D03*
D51*
X873760Y472440D02*
X877570Y476250D01*
X877570Y504190D01*
X848360Y533400D02*
X848360Y539750D01*
X848360Y533400D02*
X877570Y504190D01*
X903630Y622300D02*
X904240Y622910D01*
X903630Y622300D02*
X873760Y622300D01*
D52*
X298605Y297566D02*
X284360Y283322D01*
X284360Y271060D01*
X298605Y297566D02*
X371688Y297566D01*
X753110Y434340D02*
X762000Y434340D01*
X753110Y434340D02*
X738378Y449072D01*
X523193Y449072D02*
X371688Y297566D01*
X523193Y449072D02*
X738378Y449072D01*
D51*
X848360Y566420D02*
X873760Y591820D01*
D52*
X279400Y271100D02*
X279360Y271060D01*
D47*
X762000Y444500D03*
D51*
X848360Y472440D02*
X850240Y474320D01*
X850240Y505460D01*
D52*
X279400Y284827D02*
X279400Y271100D01*
X279400Y284827D02*
X296711Y302138D01*
X366202Y302138D01*
X753008Y444500D02*
X762000Y444500D01*
X753008Y444500D02*
X741324Y456184D01*
X520247Y456184D01*
X366202Y302138D01*
D50*
X848360Y607060D02*
X848360Y615950D01*
X848360Y607060D02*
X810260Y568960D01*
D47*
X671830Y511810D03*
X670560Y477520D03*
D50*
X680720Y527050D02*
X741070Y527050D01*
X671830Y518160D02*
X671830Y511810D01*
X671830Y518160D02*
X680720Y527050D01*
X810260Y521970D02*
X810260Y568960D01*
X810260Y521970D02*
X805180Y516890D01*
X786130Y516890D01*
X777240Y525780D01*
X777240Y535940D01*
X769620Y543560D01*
X749300Y543560D01*
X741070Y535330D01*
X741070Y527050D01*
D52*
X274102Y311368D02*
X264360Y301627D01*
X264360Y271060D01*
X663448Y470408D02*
X670560Y477520D01*
X514356Y470408D02*
X355316Y311368D01*
X514356Y470408D02*
X663448Y470408D01*
X355316Y311368D02*
X274102Y311368D01*
D47*
X683260Y511810D03*
X683260Y477520D03*
D50*
X812800Y510540D02*
X822960Y520700D01*
X822960Y539750D01*
X684530Y510540D02*
X683260Y511810D01*
X684530Y510540D02*
X812800Y510540D01*
X701700Y469900D02*
X690880Y469900D01*
X683260Y477520D01*
D52*
X274360Y286253D02*
X274360Y271060D01*
X274360Y286253D02*
X294817Y306710D01*
X360716Y306710D01*
X683260Y477266D02*
X683260Y477520D01*
X683260Y477266D02*
X669290Y463296D01*
X517301Y463296D01*
X360716Y306710D01*
X314960Y181060D02*
X304360Y181060D01*
D49*
X311150Y180106D02*
X322678Y180106D01*
D52*
X325120Y177664D01*
X314006Y180106D02*
X311150Y180106D01*
X314006Y180106D02*
X314960Y181060D01*
X217966Y207405D02*
X217805Y207244D01*
X217966Y207405D02*
X219248Y207405D01*
X225403Y213560D02*
X231860Y213560D01*
X225403Y213560D02*
X219248Y207405D01*
D51*
X229616Y259080D02*
X233045Y259080D01*
X249750Y259080D01*
X255465Y253365D02*
X264160Y253365D01*
X304800Y253365D01*
X255465Y253365D02*
X249750Y259080D01*
X304800Y253365D02*
X304800Y189230D01*
X304800Y253365D02*
X313055Y253365D01*
D52*
X318770Y253560D02*
X321860Y253560D01*
X318770Y253560D02*
X313250Y253560D01*
X313055Y253365D01*
X304360Y188790D02*
X304360Y181060D01*
X304360Y188790D02*
X304800Y189230D01*
D51*
X264160Y217424D02*
X264160Y253365D01*
X264287Y217297D02*
X261646Y214656D01*
D50*
X260376Y213386D01*
X236855Y213386D01*
X264160Y217424D02*
X264287Y217297D01*
D52*
X236681Y213560D02*
X231860Y213560D01*
X236681Y213560D02*
X236855Y213386D01*
X231860Y253560D02*
X231860Y257895D01*
X233045Y259080D01*
X249360Y270002D02*
X249360Y271060D01*
X249360Y270002D02*
X249360Y259470D01*
X249750Y259080D01*
X229616Y259080D02*
X229616Y263153D01*
D51*
X205477Y263153D01*
X185420Y283210D01*
X128270Y283210D01*
X118110Y273050D01*
X118110Y230149D01*
D52*
X242824Y269581D02*
X243574Y270331D01*
D49*
X98781Y230149D02*
X86360Y242570D01*
D52*
X98781Y230149D02*
X104648Y230149D01*
X317968Y263525D02*
X318770Y262723D01*
X318770Y253560D01*
D51*
X118110Y230149D02*
X118110Y205740D01*
X118110Y230149D02*
X104648Y230149D01*
X114164Y205740D02*
X118110Y205740D01*
D45*
X162560Y162560D02*
X168660Y162560D01*
X130946Y194174D02*
X130946Y207010D01*
X130946Y194174D02*
X162560Y162560D01*
X130946Y207010D02*
X115434Y207010D01*
X114164Y205740D01*
D52*
X242824Y269581D02*
X243245Y270002D01*
X249360Y270002D01*
D49*
X99060Y422910D02*
X86360Y410210D01*
X86360Y242570D01*
X99060Y422910D02*
X208280Y422910D01*
X221234Y409956D02*
X221234Y397256D01*
X221234Y409956D02*
X208280Y422910D01*
D45*
X699110Y377800D02*
X701040Y379730D01*
X699110Y377800D02*
X699110Y354330D01*
X715670Y354330D01*
X723290Y389230D02*
X735330Y389230D01*
X723290Y389230D02*
X713740Y398780D01*
D51*
X559630Y540580D02*
X552450Y547760D01*
D45*
X552450Y576580D02*
X571500Y595630D01*
X571500Y622960D01*
D51*
X559630Y540580D02*
X594800Y540580D01*
X608330Y527050D02*
X610260Y527050D01*
X608330Y527050D02*
X594800Y540580D01*
X552450Y547760D02*
X552450Y576580D01*
D45*
X535940Y561340D02*
X533400Y563880D01*
X535940Y561340D02*
X535940Y500380D01*
X533400Y589280D02*
X533400Y622960D01*
D51*
X765150Y591820D02*
X810260Y591820D01*
X822960Y604520D02*
X822960Y615950D01*
X822960Y604520D02*
X810260Y591820D01*
X765150Y561340D02*
X786740Y539750D01*
X797560Y539750D01*
D45*
X690880Y589280D02*
X674370Y605790D01*
X674370Y622960D01*
X711200Y621690D02*
X712470Y622960D01*
X711200Y621690D02*
X711200Y591820D01*
X711200Y577850D01*
X709930Y576580D01*
D51*
X711200Y591820D02*
X746150Y591820D01*
D45*
X643890Y586740D02*
X633730Y576580D01*
X643890Y586740D02*
X643890Y622960D01*
D51*
X633730Y576580D02*
X669290Y541020D01*
X717550Y541020D01*
X737870Y561340D02*
X746150Y561340D01*
X737870Y561340D02*
X717550Y541020D01*
D45*
X614680Y589280D02*
X605790Y598170D01*
X605790Y622960D01*
D52*
X674370Y335890D02*
X692150Y335890D01*
D53*
X674370Y335890D02*
X672490Y334010D01*
D52*
X659130Y334010D01*
X630936Y305816D01*
X435431Y305816D02*
X420191Y290576D01*
X435431Y305816D02*
X630936Y305816D01*
X299360Y277770D02*
X299360Y271060D01*
X299360Y277770D02*
X304800Y283210D01*
X381541Y290576D02*
X420191Y290576D01*
X381541Y290576D02*
X367698Y276733D01*
X358487Y276733D01*
X352010Y283210D02*
X304800Y283210D01*
X352010Y283210D02*
X358487Y276733D01*
D48*
X871220Y177800D02*
X899160Y177800D01*
X944880Y177800D01*
X955040Y187960D02*
X955040Y198190D01*
X955040Y187960D02*
X944880Y177800D01*
X955040Y198190D02*
X955040Y218370D01*
X758190Y138430D02*
X715010Y181610D01*
X758190Y138430D02*
X758190Y111760D01*
X774700Y95250D01*
X880110Y95250D01*
X899160Y114300D01*
X899160Y177800D01*
X715010Y181610D02*
X600710Y181610D01*
X586740Y195580D01*
D45*
X586740Y164440D01*
D48*
X840740Y254000D02*
X871220Y254000D01*
X840740Y254000D02*
X833120Y261620D01*
X833120Y317500D01*
X822960Y327660D01*
X787400Y327660D01*
X777240Y337820D02*
X777240Y359410D01*
X777240Y459740D01*
X777240Y337820D02*
X787400Y327660D01*
X924560Y218370D02*
X924560Y198190D01*
X896620Y254000D02*
X871220Y254000D01*
X896620Y254000D02*
X924560Y226060D01*
X924560Y218370D01*
X586740Y492760D02*
X586740Y500380D01*
D51*
X777240Y359410D02*
X777900Y359410D01*
D48*
X589280Y490220D02*
X586740Y492760D01*
X665692Y490220D02*
X746760Y490220D01*
X655532Y500380D02*
X586740Y500380D01*
X655532Y500380D02*
X665692Y490220D01*
X746760Y490220D02*
X777240Y459740D01*
D51*
X603885Y640055D02*
X605790Y641960D01*
X643255Y641325D02*
X643890Y641960D01*
D48*
X571500Y641960D02*
X533400Y641960D01*
X571500Y641960D02*
X601980Y641960D01*
D45*
X603885Y640055D01*
D48*
X605790Y641960D02*
X642620Y641960D01*
D45*
X643255Y641325D01*
D48*
X643890Y641960D02*
X674370Y641960D01*
X712470Y641960D01*
X762000Y641960D02*
X915661Y641960D01*
X762000Y641960D02*
X717550Y641960D01*
X712470Y641960D01*
X915661Y641960D02*
X923290Y634331D01*
X923290Y513080D01*
X923290Y306140D01*
X924560Y304870D01*
D54*
X955040Y304870D01*
X924560Y304870D02*
X924490Y304800D01*
X904240Y304800D01*
X878840Y304800D01*
X871220Y304800D01*
D45*
X735330Y370230D02*
X734670Y369570D01*
X734670Y354330D01*
D51*
X707980Y316890D02*
X692150Y316890D01*
X707980Y316890D02*
X711200Y320110D01*
D48*
X875030Y322716D02*
X875030Y308610D01*
X878840Y304800D01*
D54*
X955040Y304870D02*
X1018470Y304870D01*
X1051560Y271780D01*
D45*
X904240Y512800D02*
X904520Y513080D01*
X923290Y513080D01*
X755774Y370230D02*
X735330Y370230D01*
D51*
X755774Y370230D02*
X756920Y369084D01*
D48*
X741680Y320110D02*
X734060Y320110D01*
X711200Y320110D01*
X734060Y353720D02*
X734670Y354330D01*
X734060Y353720D02*
X734060Y320110D01*
D45*
X764366Y641960D02*
X764540Y642134D01*
X764366Y641960D02*
X762000Y641960D01*
X756920Y382406D02*
X755774Y381260D01*
X755774Y370230D01*
X624316Y641960D02*
X624840Y642484D01*
X624316Y641960D02*
X605790Y641960D01*
X552974Y641960D02*
X552450Y642484D01*
X552974Y641960D02*
X571500Y641960D01*
X692896Y641960D02*
X693420Y642484D01*
X692896Y641960D02*
X674370Y641960D01*
X737346Y641960D02*
X737870Y642484D01*
X737346Y641960D02*
X717550Y641960D01*
D51*
X904240Y316716D02*
X904240Y304800D01*
D45*
X561340Y195580D02*
X561340Y164440D01*
D48*
X741680Y213430D02*
X741680Y233610D01*
X741680Y213430D02*
X741680Y198120D01*
X762000Y177800D02*
X795020Y177800D01*
X762000Y177800D02*
X741680Y198120D01*
D45*
X535940Y195580D02*
X535940Y164440D01*
D52*
X280142Y162279D02*
X280142Y170500D01*
X284360Y174718D02*
X284360Y181060D01*
X284360Y174718D02*
X280142Y170500D01*
D50*
X765810Y221590D02*
X771500Y215900D01*
D52*
X377403Y193496D02*
X340816Y193496D01*
X336804Y189484D01*
X286454Y155967D02*
X280142Y162279D01*
X286454Y155967D02*
X309257Y156068D01*
X316734Y148590D01*
X809371Y165100D02*
X815721Y171450D01*
X815721Y211709D02*
X811530Y215900D01*
X771500Y215900D01*
X778510Y165100D02*
X809371Y165100D01*
X815721Y171450D02*
X815721Y211709D01*
X817372Y106172D02*
X779018Y106172D01*
X767842Y154432D02*
X778510Y165100D01*
X767842Y154432D02*
X767842Y117348D01*
X779018Y106172D01*
X817372Y106172D02*
X838200Y127000D01*
X871220Y127000D01*
X765810Y221590D02*
X765810Y233680D01*
X750570Y248920D01*
X432827Y248920D02*
X377403Y193496D01*
X432827Y248920D02*
X750570Y248920D01*
X332740Y148590D02*
X316734Y148590D01*
X336804Y152654D02*
X336804Y189484D01*
X336804Y152654D02*
X332740Y148590D01*
X294360Y271060D02*
X294360Y280390D01*
D50*
X760095Y304825D02*
X762000Y306730D01*
D47*
X361696Y284480D03*
D52*
X760120Y304800D02*
X795020Y304800D01*
D53*
X760120Y304800D02*
X760095Y304825D01*
D52*
X762000Y306730D02*
X754228Y298958D01*
X440811Y298958D01*
D47*
X361950Y269240D03*
D52*
X426333Y284480D02*
X440811Y298958D01*
X426333Y284480D02*
X382270Y284480D01*
X367030Y269240D02*
X361950Y269240D01*
X367030Y269240D02*
X382270Y284480D01*
X301752Y287782D02*
X294360Y280390D01*
X301752Y287782D02*
X358394Y287782D01*
X361696Y284480D01*
X852170Y152400D02*
X871220Y152400D01*
X852170Y152400D02*
X812800Y113030D01*
X782398Y113030D01*
X773430Y133350D02*
X779780Y139700D01*
X807720Y139700D01*
X833120Y165100D01*
X817880Y252730D02*
X817880Y260350D01*
X773430Y121998D02*
X782398Y113030D01*
X773430Y121998D02*
X773430Y133350D01*
X833120Y165100D02*
X833120Y237490D01*
X817880Y252730D01*
X817880Y260350D02*
X811530Y266700D01*
X434801Y266700D01*
X371661Y203560D01*
X321860Y203560D01*
D47*
X820420Y292100D03*
D52*
X444396Y292100D01*
X365856Y213560D01*
X321860Y213560D01*
X439599Y279400D02*
X795020Y279400D01*
X439599Y279400D02*
X368759Y208560D01*
X321860Y208560D01*
X321860Y198560D02*
X374564Y198560D01*
D50*
X795020Y152400D02*
X808990Y152400D01*
D52*
X824230Y167640D01*
X824230Y234950D01*
X816610Y242570D02*
X768350Y242570D01*
X816610Y242570D02*
X824230Y234950D01*
X768350Y242570D02*
X753872Y257048D01*
X433052Y257048D01*
X374564Y198560D01*
D47*
X762000Y424180D03*
D51*
X822960Y396240D02*
X822960Y382270D01*
X833120Y372110D01*
X833120Y360070D01*
X832460Y359410D01*
D50*
X745490Y427990D02*
X737734Y427990D01*
X745490Y427990D02*
X750570Y422910D01*
X760730Y422910D01*
X762000Y424180D01*
D52*
X259360Y290042D02*
X259360Y271060D01*
X251308Y298094D02*
X242824Y298094D01*
X251308Y298094D02*
X259360Y290042D01*
X231860Y248560D02*
X225150Y248560D01*
D47*
X198755Y241300D03*
X200406Y209677D03*
D52*
X225150Y248560D02*
X218440Y255270D01*
X300990Y90170D02*
X300990Y73660D01*
X186690Y195961D02*
X200406Y209677D01*
X186690Y195961D02*
X186690Y115570D01*
X200660Y255270D02*
X218440Y255270D01*
X198755Y253365D02*
X198755Y241300D01*
X198755Y253365D02*
X200660Y255270D01*
X287528Y103632D02*
X300990Y90170D01*
X198628Y103632D02*
X186690Y115570D01*
X198628Y103632D02*
X287528Y103632D01*
D47*
X281940Y234315D03*
X267970Y317881D03*
D52*
X279360Y188933D02*
X279360Y181060D01*
X295910Y205483D02*
X295910Y220980D01*
X282575Y234315D01*
X281940Y234315D01*
X295910Y205483D02*
X279360Y188933D01*
X244352Y332638D02*
X243078Y332638D01*
X244352Y332638D02*
X247752Y333781D01*
X263652Y317881D02*
X267970Y317881D01*
X263652Y317881D02*
X247752Y333781D01*
D47*
X355600Y221361D03*
D52*
X352799Y218560D02*
X321860Y218560D01*
X352799Y218560D02*
X355600Y221361D01*
D47*
X377845Y185400D03*
D52*
X721360Y100076D02*
X727456Y93980D01*
X727456Y66548D01*
X726948Y66040D01*
D47*
X726948Y66040D03*
X731520Y5080D03*
D52*
X731520Y2540D01*
X751840Y-17780D01*
X381232Y185400D02*
X377845Y185400D01*
X381232Y185400D02*
X409914Y156718D01*
X477332Y156718D01*
X508447Y125603D02*
X623443Y125603D01*
X508447Y125603D02*
X477332Y156718D01*
D55*
X965320Y-389920D03*
D52*
X918240Y-389920D01*
X863600Y-335280D01*
X863600Y-45720D01*
X835660Y-17780D01*
X751840Y-17780D01*
X623443Y125603D02*
X629920Y132080D01*
X629920Y118110D01*
X647954Y100076D02*
X721360Y100076D01*
X647954Y100076D02*
X629920Y118110D01*
D47*
X365760Y225044D03*
X386087Y191142D03*
D52*
X365760Y225044D02*
X363604Y225044D01*
X359286Y229362D01*
X351282Y229362D01*
X345480Y223560D02*
X321860Y223560D01*
X345480Y223560D02*
X351282Y229362D01*
X655320Y118110D02*
X667512Y105918D01*
X655320Y118110D02*
X655320Y132080D01*
X728356Y105918D02*
X737108Y97166D01*
X737108Y66040D01*
X728356Y105918D02*
X667512Y105918D01*
X736854Y66040D02*
X737108Y66040D01*
D47*
X736854Y66040D03*
X741680Y8890D03*
D52*
X741680Y5080D01*
X755650Y-8890D01*
X390081Y191142D02*
X386087Y191142D01*
X479331Y161544D02*
X510446Y130429D01*
X419679Y161544D02*
X390081Y191142D01*
X419679Y161544D02*
X479331Y161544D01*
X510446Y130429D02*
X600123Y130429D01*
D55*
X1015320Y-389920D03*
D52*
X842010Y-8890D02*
X755650Y-8890D01*
X842010Y-8890D02*
X873760Y-40640D01*
X873760Y-327660D01*
X916940Y-370840D02*
X1008380Y-370840D01*
X1015320Y-377780D01*
X1015320Y-389920D01*
X916940Y-370840D02*
X873760Y-327660D01*
X600123Y130429D02*
X624634Y154940D01*
X647700Y154940D01*
X656590Y146050D02*
X656590Y133350D01*
X655320Y132080D01*
X656590Y146050D02*
X647700Y154940D01*
D47*
X373380Y233680D03*
X393700Y198120D03*
D52*
X481330Y166370D02*
X512445Y135255D01*
X342860Y228560D02*
X321860Y228560D01*
X348615Y234315D02*
X372745Y234315D01*
X373380Y233680D01*
X348615Y234315D02*
X342860Y228560D01*
X393700Y198120D02*
X425450Y166370D01*
X481330Y166370D01*
X512445Y135255D02*
X595584Y135255D01*
X680720Y132080D02*
X680720Y139700D01*
X680720Y120650D02*
X689610Y111760D01*
X680720Y120650D02*
X680720Y132080D01*
X689610Y111760D02*
X737870Y111760D01*
X746760Y102870D01*
X746760Y66040D01*
D47*
X746760Y66040D03*
X751840Y8890D03*
D52*
X760730Y0D01*
D55*
X965320Y-244920D03*
D52*
X883920Y-33020D02*
X850900Y0D01*
X883920Y-33020D02*
X883920Y-220980D01*
X850900Y0D02*
X760730Y0D01*
X883920Y-220980D02*
X907860Y-244920D01*
X965320Y-244920D01*
X595584Y135255D02*
X622889Y162560D01*
X666750Y162560D02*
X680720Y148590D01*
X680720Y132080D01*
X666750Y162560D02*
X622889Y162560D01*
D47*
X288016Y165120D03*
D52*
X289360Y166463D01*
X289360Y181060D01*
X298450Y168275D02*
X298450Y163830D01*
D47*
X298450Y163830D03*
D52*
X298450Y168275D02*
X294360Y172365D01*
X294360Y181060D01*
D51*
X140594Y296804D02*
X109490Y296804D01*
X207010Y337058D02*
X217170Y337058D01*
X207010Y337058D02*
X180848Y337058D01*
X140594Y296804D01*
X226974Y317094D02*
X242824Y317094D01*
X226974Y317094D02*
X207010Y337058D01*
X231750Y351638D02*
X243078Y351638D01*
X231750Y351638D02*
X217170Y337058D01*
D48*
X943610Y445770D02*
X970280Y419100D01*
X943610Y445770D02*
X943610Y641350D01*
X924560Y660400D01*
X502920Y660400D01*
X132080Y660400D01*
D45*
X502920Y660400D02*
X502920Y642340D01*
X170786Y439556D02*
X168910Y439556D01*
D48*
X107950Y636270D02*
X132080Y660400D01*
X107950Y450850D02*
X119244Y439556D01*
X148590Y439556D01*
X107950Y450850D02*
X107950Y636270D01*
X148590Y439556D02*
X170786Y439556D01*
X168910Y439556D02*
X194836Y439556D01*
X195830Y440550D01*
D45*
X128620Y439556D02*
X128270Y439906D01*
X128620Y439556D02*
X148590Y439556D01*
D51*
X502920Y642340D02*
X502920Y642340D01*
D45*
X134620Y561340D02*
X131470Y558190D01*
X131470Y527050D01*
X150990Y486550D02*
X195830Y486550D01*
X150990Y486550D02*
X130810Y506730D01*
X130810Y526390D02*
X131470Y527050D01*
X130810Y526390D02*
X130810Y506730D01*
D52*
X321860Y238560D02*
X335080Y238560D01*
X346710Y250190D01*
X346710Y275590D01*
D47*
X346710Y275590D03*
X345440Y320040D03*
D51*
X335280Y320040D01*
X314198Y341122D01*
X300482Y341122D01*
D49*
X254000Y508000D02*
X254000Y535940D01*
X254000Y508000D02*
X264160Y497840D01*
X266700Y497840D01*
X243840Y546100D02*
X232410Y546100D01*
X243840Y546100D02*
X254000Y535940D01*
X295910Y467360D02*
X295910Y453390D01*
X266700Y496570D02*
X266700Y497840D01*
X266700Y496570D02*
X295910Y467360D01*
D45*
X287020Y520700D02*
X308610Y520700D01*
X287020Y520700D02*
X270510Y537210D01*
X270510Y579120D01*
X252730Y596900D02*
X232410Y596900D01*
X252730Y596900D02*
X270510Y579120D01*
D51*
X232410Y596900D02*
X232410Y610870D01*
X242570Y621030D02*
X245110Y621030D01*
X242570Y621030D02*
X232410Y610870D01*
D45*
X212090Y584200D02*
X190500Y584200D01*
X224790Y571500D02*
X232410Y571500D01*
X224790Y571500D02*
X212090Y584200D01*
D52*
X194131Y584200D02*
X190500Y584200D01*
X194131Y584200D02*
X223520Y613589D01*
X223520Y624840D01*
D45*
X257810Y638674D02*
X302260Y638674D01*
X311150Y638674D01*
X312420Y638674D02*
X332740Y638674D01*
D50*
X301650Y492760D02*
X300050Y491160D01*
D47*
X262890Y520700D03*
D45*
X354466Y638674D02*
X353060Y640080D01*
X375784Y638674D02*
X377190Y640080D01*
X375784Y638674D02*
X354466Y638674D01*
X332740Y638674D01*
X312420Y638674D02*
X311150Y638674D01*
X177800Y638810D02*
X164964Y625974D01*
X177800Y638810D02*
X257674Y638810D01*
X257810Y638674D01*
D50*
X262890Y520700D02*
X270510Y520700D01*
X300050Y491160D01*
D45*
X231140Y463550D02*
X195830Y463550D01*
X231140Y463550D02*
X258830Y463550D01*
X231140Y519430D02*
X232410Y520700D01*
X231140Y519430D02*
X231140Y463550D01*
D48*
X152524Y529104D02*
X150470Y527050D01*
D45*
X152524Y529104D02*
X172720Y529104D01*
D48*
X197770Y529104D02*
X198120Y529454D01*
D45*
X223656Y529454D01*
X232410Y520700D01*
X164964Y529104D02*
X164964Y561340D01*
X190500Y561340D01*
X164964Y561340D02*
X164964Y625974D01*
X172720Y529104D02*
X197770Y529104D01*
X172720Y529104D02*
X164964Y529104D01*
D51*
X311150Y638674D02*
X311150Y644674D01*
X312420Y643404D01*
X312420Y638674D01*
X300990Y639944D02*
X288290Y639944D01*
X300990Y639944D02*
X302260Y638674D01*
D45*
X434340Y553720D02*
X434340Y500380D01*
X434340Y553720D02*
X436880Y556260D01*
X436880Y570230D01*
X459740Y528320D02*
X459740Y500380D01*
X459740Y528320D02*
X480060Y548640D01*
X480060Y590550D01*
X436880Y604520D02*
X436880Y624840D01*
X436880Y604520D02*
X443230Y598170D01*
X472440Y598170D01*
X480060Y590550D01*
X407670Y563880D02*
X377190Y563880D01*
X407670Y563880D02*
X414020Y570230D01*
X377190Y550570D02*
X370180Y543560D01*
X377190Y550570D02*
X377190Y563880D01*
X354330Y602590D02*
X334010Y602590D01*
X354330Y602590D02*
X391770Y602590D01*
X414020Y624840D01*
X353060Y601320D02*
X353060Y563880D01*
X353060Y601320D02*
X354330Y602590D01*
D50*
X696570Y427990D02*
X720226Y427990D01*
D52*
X289360Y281856D02*
X289360Y271060D01*
X693420Y431140D02*
X696570Y427990D01*
X693420Y431140D02*
X693420Y438150D01*
X689610Y441960D01*
X526139Y441960D01*
X377174Y292994D02*
X300499Y292994D01*
X289360Y281856D01*
X377174Y292994D02*
X526139Y441960D01*
X172860Y228560D02*
X171450Y227150D01*
X172860Y228560D02*
X231860Y228560D01*
X148634Y227150D02*
X148454Y227330D01*
X148634Y227150D02*
X171450Y227150D01*
X171450Y268150D02*
X151174Y268150D01*
X148454Y265430D01*
X190500Y259260D02*
X190500Y238010D01*
X190500Y259260D02*
X181610Y268150D01*
X171450Y268150D01*
X194950Y233560D02*
X231860Y233560D01*
X194950Y233560D02*
X190500Y238010D01*
D45*
X321240Y427990D02*
X337820Y444570D01*
X321240Y427990D02*
X295910Y427990D01*
D52*
X191857Y221067D02*
X191770Y221067D01*
D47*
X191770Y221067D03*
X182626Y243889D03*
D52*
X181659Y244856D01*
X127127Y244856D01*
D47*
X127127Y244856D03*
X108204Y246888D03*
D52*
X194350Y223560D02*
X231860Y223560D01*
X194350Y223560D02*
X191857Y221067D01*
X108204Y246888D02*
X94234Y260858D01*
D51*
X104648Y249149D02*
X108204Y249149D01*
X108204Y246888D01*
D52*
X94234Y381254D02*
X110490Y397510D01*
X119380Y397510D02*
X119634Y397256D01*
X119380Y397510D02*
X110490Y397510D01*
X94234Y381254D02*
X94234Y260858D01*
X119634Y375666D02*
X119634Y397256D01*
X130175Y365125D02*
X147710Y365125D01*
X130175Y365125D02*
X119634Y375666D01*
X319786Y275590D02*
X331470Y275590D01*
D47*
X319786Y275590D03*
X320040Y318861D03*
D52*
X320040Y321818D01*
X313944Y327914D01*
X262382Y344678D02*
X262382Y362320D01*
X255132Y369570D01*
X209550Y369570D01*
X206692Y369570D01*
X279146Y327914D02*
X313944Y327914D01*
X279146Y327914D02*
X262382Y344678D01*
X321860Y243560D02*
X332460Y243560D01*
X336783Y247883D02*
X336783Y270277D01*
X331470Y275590D01*
X336783Y247883D02*
X332460Y243560D01*
X203200Y369570D02*
X195580Y377190D01*
X195580Y397002D01*
X195834Y397256D01*
X203200Y369570D02*
X206692Y369570D01*
X304360Y271060D02*
X305858Y271060D01*
X309880Y275082D01*
D47*
X309880Y275082D03*
X310134Y318861D03*
D52*
X277785Y318861D01*
X256540Y340106D02*
X256540Y359156D01*
X253238Y362458D01*
X256540Y340106D02*
X277785Y318861D01*
X253238Y362458D02*
X188838Y362458D01*
X167640Y394462D02*
X170434Y397256D01*
X167640Y394462D02*
X167640Y383656D01*
X188838Y362458D01*
D51*
X274320Y371450D02*
X295554Y371450D01*
X300482Y366522D01*
X337820Y358070D02*
X363220Y358070D01*
X337820Y358070D02*
X329368Y366522D01*
X300482Y366522D01*
D56*
X970280Y466090D02*
X1051560Y466090D01*
D51*
X965200Y602970D02*
X966470Y604240D01*
X966470Y623570D01*
X971550Y628650D01*
D56*
X1043940Y568960D02*
X1043940Y547140D01*
X984250Y628650D02*
X971550Y628650D01*
X984250Y628650D02*
X1043940Y568960D01*
X1051560Y500380D02*
X1051560Y466090D01*
X1051560Y500380D02*
X1054170Y500380D01*
D54*
X1043940Y525780D02*
X1043940Y547140D01*
X1043940Y525780D02*
X1043940Y508000D01*
X1051560Y500380D01*
X1043940Y525780D02*
X1063612Y525780D01*
X1043940Y525780D02*
X1025674Y525780D01*
D52*
X1054170Y500380D02*
X1068342Y500380D01*
D45*
X970280Y372110D02*
X946810Y348640D01*
X946810Y330200D01*
X1005180Y228600D02*
X1047750Y228600D01*
X1051560Y224790D01*
X1051560Y372110D02*
X1044550Y372110D01*
X1002640Y330200D01*
D51*
X1052344Y186690D02*
X1051560Y185906D01*
D48*
X1051560Y165100D01*
D51*
X1051560Y160020D01*
X1047750Y156210D01*
X1038580Y156210D01*
X1038580Y165710D02*
X1050950Y165710D01*
X1051560Y165100D01*
D54*
X1051560Y318770D02*
X1082040Y318770D01*
X1082040Y248920D01*
X1082040Y216386D01*
X1052344Y186690D01*
X1082040Y388620D02*
X1051560Y419100D01*
X1082040Y388620D02*
X1082040Y318770D01*
D48*
X1051560Y165100D02*
X1051560Y98924D01*
D51*
X1016280Y284200D02*
X985520Y284200D01*
X1016280Y284200D02*
X1026160Y274320D01*
X1026160Y259080D01*
X1036320Y248920D01*
X1082040Y248920D01*
D48*
X1047614Y102870D02*
X1050290Y100194D01*
X1050290Y76200D01*
X1051560Y98924D02*
X1047614Y102870D01*
D51*
X965200Y546710D02*
X965200Y567970D01*
D45*
X985520Y249200D02*
X1004950Y249200D01*
X1005840Y248310D01*
X502920Y588620D02*
X502920Y607340D01*
X904240Y477800D02*
X904240Y461620D01*
D47*
X276860Y220345D03*
D52*
X265430Y208560D02*
X231860Y208560D01*
D47*
X367030Y185420D03*
D52*
X631190Y96012D02*
X631190Y73660D01*
X276860Y219990D02*
X265430Y208560D01*
X276860Y219990D02*
X276860Y220345D01*
X475333Y151892D02*
X506448Y120777D01*
X367228Y185420D02*
X367030Y185420D01*
X367228Y185420D02*
X400756Y151892D01*
X475333Y151892D01*
X506448Y120777D02*
X606425Y120777D01*
X631190Y96012D01*
D47*
X287655Y212725D03*
D52*
X272194Y203703D02*
X231860Y203560D01*
X272194Y203703D02*
X281216Y212725D01*
X287655Y212725D01*
D47*
X356235Y185420D03*
D52*
X583819Y115951D02*
X605790Y93980D01*
X605790Y73660D01*
X394589Y147066D02*
X356235Y185420D01*
X394589Y147066D02*
X473334Y147066D01*
X504449Y115951D01*
X583819Y115951D01*
D47*
X283210Y203835D03*
D52*
X276776Y198560D02*
X231860Y198560D01*
X276776Y198560D02*
X283210Y203835D01*
D47*
X345440Y185495D03*
D52*
X580390Y90170D02*
X580390Y73660D01*
X388695Y142240D02*
X345440Y185495D01*
X502450Y111125D02*
X559435Y111125D01*
X580390Y90170D01*
X502450Y111125D02*
X471335Y142240D01*
X388695Y142240D01*
X249360Y157920D02*
X249360Y181060D01*
X249360Y157920D02*
X246380Y154940D01*
D47*
X246380Y154940D03*
X302260Y142875D03*
D52*
X540131Y106299D02*
X554990Y91440D01*
X554990Y73660D01*
X540131Y106299D02*
X500451Y106299D01*
X307721Y137414D02*
X302260Y142875D01*
X469336Y137414D02*
X500451Y106299D01*
X469336Y137414D02*
X307721Y137414D01*
X529590Y88900D02*
X529590Y73660D01*
X254360Y149655D02*
X254360Y181060D01*
X254360Y149655D02*
X248387Y143683D01*
D47*
X248387Y143683D03*
X277361Y144780D03*
D52*
X289560Y144780D01*
X301752Y132588D01*
X498452Y101473D02*
X517017Y101473D01*
X529590Y88900D01*
X498452Y101473D02*
X467337Y132588D01*
X301752Y132588D01*
X259360Y140646D02*
X259360Y181060D01*
D47*
X254498Y135784D03*
X284480Y137160D03*
D52*
X259360Y140646D02*
X254498Y135784D01*
X465328Y127762D02*
X504190Y88900D01*
X504190Y73660D01*
X293878Y127762D02*
X284480Y137160D01*
X293878Y127762D02*
X465328Y127762D01*
D47*
X261359Y128636D03*
X276860Y129406D03*
D52*
X264360Y131637D02*
X264360Y181060D01*
X264360Y131637D02*
X261359Y128636D01*
X478790Y107475D02*
X478790Y73660D01*
X478790Y107475D02*
X463329Y122936D01*
X283330Y122936D02*
X276860Y129406D01*
X283330Y122936D02*
X463329Y122936D01*
X269360Y134620D02*
X269360Y181060D01*
X453390Y105410D02*
X453390Y73660D01*
X453390Y105410D02*
X440690Y118110D01*
X269367Y134613D02*
X269360Y134620D01*
X269367Y134613D02*
X269367Y126302D01*
X277559Y118110D02*
X440690Y118110D01*
X277559Y118110D02*
X269367Y126302D01*
D45*
X172970Y115570D02*
X172970Y90170D01*
X181610Y81530D01*
X181610Y81280D02*
X217170Y45720D01*
X240030Y45720D01*
X250190Y55880D01*
X250190Y73660D01*
X181610Y81280D02*
X181610Y81530D01*
D50*
X883920Y3810D02*
X891540Y3810D01*
X883920Y3810D02*
X869950Y17780D01*
D47*
X275590Y16510D03*
D50*
X624840Y16510D01*
X655320Y-13970D01*
X701040Y-13970D01*
X732790Y17780D01*
X869950Y17780D01*
D47*
X659130Y-3810D03*
D50*
X916940Y26670D02*
X916940Y29210D01*
X700912Y-3810D02*
X659130Y-3810D01*
X731392Y26670D02*
X916940Y26670D01*
X731392Y26670D02*
X700912Y-3810D01*
D47*
X208280Y215900D03*
X206375Y247650D03*
D52*
X208915Y250190D02*
X216535Y250190D01*
X208915Y250190D02*
X206375Y247650D01*
X216535Y250190D02*
X223165Y243560D01*
X231860Y243560D01*
X311912Y108458D02*
X326390Y93980D01*
X326390Y73660D01*
X214447Y190246D02*
X208280Y196413D01*
X214447Y190246D02*
X222325Y190246D01*
X233680Y178891D01*
X208280Y196413D02*
X208280Y215900D01*
X233680Y178891D02*
X233680Y132875D01*
X258097Y108458D02*
X311912Y108458D01*
X258097Y108458D02*
X233680Y132875D01*
X321860Y233560D02*
X322288Y233988D01*
X336974Y233988D01*
X346826Y243840D02*
X354330Y243840D01*
X346826Y243840D02*
X336974Y233988D01*
X274360Y181060D02*
X274360Y159980D01*
X283972Y150368D02*
X306454Y150368D01*
X314582Y142240D01*
X283972Y150368D02*
X274360Y159980D01*
X314582Y142240D02*
X365760Y142240D01*
X369570Y146050D01*
D47*
X369570Y146050D03*
D52*
X231860Y238560D02*
X217370Y238560D01*
X214630Y241300D01*
D47*
X214630Y241300D03*
X217170Y198120D03*
D52*
X220980Y198120D01*
X238760Y180340D01*
X238760Y134620D01*
X402590Y100584D02*
X402590Y73660D01*
X402590Y100584D02*
X389890Y113284D01*
X260096Y113284D02*
X238760Y134620D01*
X260096Y113284D02*
X389890Y113284D01*
D47*
X762610Y412750D03*
D51*
X680110Y354330D02*
X665480Y368960D01*
X665480Y406400D02*
X671830Y412750D01*
X762610Y412750D01*
X665480Y406400D02*
X665480Y368960D01*
X668630Y501650D02*
X643230Y527050D01*
X629260Y527050D01*
X668630Y501650D02*
X808990Y501650D01*
X822960Y487680D02*
X822960Y472440D01*
X822960Y487680D02*
X808990Y501650D01*
X1000330Y156210D02*
X1016270Y156210D01*
X1000330Y156210D02*
X1000330Y161290D01*
X1002870Y130106D02*
X1004706Y128270D01*
X1002870Y158750D02*
X1000330Y161290D01*
X1002870Y158750D02*
X1002870Y130106D01*
D49*
X1018540Y144440D02*
X1016270Y146710D01*
X1018540Y131944D02*
X1022214Y128270D01*
X1018540Y131944D02*
X1018540Y144440D01*
D50*
X339090Y520040D02*
X325730Y533400D01*
X292100Y533400D02*
X284480Y541020D01*
X284480Y560070D01*
X295910Y571500D01*
X308610Y571500D01*
X292100Y533400D02*
X325730Y533400D01*
D45*
X321920Y571500D02*
X308610Y571500D01*
X321920Y571500D02*
X334010Y583590D01*
D50*
X358140Y520040D02*
X363880Y520040D01*
X351180Y543560D02*
X350850Y543890D01*
X350850Y533070D01*
X363880Y520040D01*
D45*
X351180Y543560D02*
X348640Y546100D01*
X308610Y546100D01*
D51*
X354940Y488950D02*
X358140Y485750D01*
X324460Y488950D02*
X320650Y492760D01*
X324460Y488950D02*
X336414Y488950D01*
X341766Y488950D02*
X354940Y488950D01*
X358140Y485750D02*
X358140Y501040D01*
X339793Y500337D02*
X339793Y486977D01*
D52*
X339090Y486274D02*
X336414Y488950D01*
X339090Y486274D02*
X339793Y486977D01*
X339090Y486274D02*
X341766Y488950D01*
X339793Y500337D02*
X339090Y501040D01*
D55*
X1015320Y-244920D03*
X990320Y-389920D03*
D47*
X328295Y161290D03*
X329290Y263017D03*
D52*
X299360Y181060D02*
X299360Y174350D01*
D47*
X234188Y280670D03*
X252730Y222250D03*
X674370Y316890D03*
X813410Y359410D03*
D51*
X813460Y359410D02*
X796900Y359410D01*
D50*
X795020Y203200D02*
X794410Y202590D01*
X765810Y202590D01*
X762000Y325730D02*
X758190Y329540D01*
X758190Y339090D01*
D47*
X758190Y339090D03*
X831240Y505460D03*
X760070Y527050D03*
X677570Y427990D03*
X720700Y469900D03*
X875030Y340224D03*
D50*
X999490Y186690D02*
X1022836Y186690D01*
X999490Y186690D02*
X999490Y201930D01*
D47*
X999490Y204470D03*
D50*
X999490Y201930D01*
X1022836Y186690D02*
X1022836Y184150D01*
X999490Y184150D01*
D47*
X999490Y184150D03*
X1017270Y168910D03*
X1027430Y191770D03*
X1027430Y181610D03*
X999490Y194310D03*
D45*
X904240Y591820D02*
X904240Y603910D01*
X904240Y591820D02*
X904240Y584064D01*
D47*
X904240Y591820D03*
X974700Y330200D03*
X904240Y428126D03*
D48*
X996166Y525780D02*
X996166Y527050D01*
X994340Y527050D01*
X967670Y500380D01*
D47*
X1005840Y267310D03*
X904240Y547234D03*
D45*
X904240Y377326D02*
X904240Y350520D01*
X904240Y428126D02*
X904240Y442620D01*
D51*
X986180Y228600D02*
X986180Y224130D01*
X999490Y210820D02*
X999490Y201930D01*
X999490Y210820D02*
X986180Y224130D01*
X974700Y330200D02*
X965810Y330200D01*
X974700Y330200D02*
X983640Y330200D01*
X757406Y339090D02*
X756920Y339576D01*
D45*
X757406Y339090D02*
X758190Y339090D01*
X586740Y145440D02*
X561340Y145440D01*
X535940Y145440D01*
X522580Y145440D01*
X510540Y157480D02*
X510540Y195580D01*
X510540Y157480D02*
X522580Y145440D01*
D52*
X328295Y156981D02*
X325120Y160156D01*
X328295Y161290D02*
X328295Y156981D01*
X303296Y170414D02*
X299360Y174350D01*
X303296Y170414D02*
X311150Y170414D01*
D49*
X320274Y161290D01*
D52*
X328295Y161290D01*
X219429Y218560D02*
X217805Y216936D01*
X219429Y218560D02*
X231860Y218560D01*
D50*
X248946Y218466D02*
X252730Y222250D01*
X248946Y218466D02*
X236855Y218466D01*
D52*
X236761Y218560D02*
X231860Y218560D01*
X236761Y218560D02*
X236855Y218466D01*
D47*
X226060Y280915D03*
X130421Y226615D03*
X131056Y265795D03*
X737870Y624976D03*
X502920Y569620D03*
X1081120Y525780D03*
D49*
X967670Y525240D02*
X965200Y527710D01*
X967670Y525240D02*
X967670Y500380D01*
D47*
X101092Y190500D03*
X101092Y180340D03*
X109220Y190500D03*
D51*
X109338Y181602D02*
X109338Y180086D01*
D47*
X109338Y180086D03*
X274320Y352450D03*
D52*
X321860Y248560D02*
X328570Y248560D01*
X331470Y251460D01*
X331470Y260837D01*
X329290Y263017D01*
D51*
X96656Y205740D02*
X96656Y194564D01*
X105660Y185560D01*
D48*
X109338Y181882D01*
X109338Y181602D01*
D50*
X121412Y116468D02*
X120514Y115570D01*
X121412Y116468D02*
X121412Y119634D01*
D47*
X121412Y119634D03*
X121158Y111760D03*
X148590Y210820D03*
X148590Y203200D03*
D51*
X239014Y279273D02*
X242824Y279273D01*
X239014Y279273D02*
X231004Y279273D01*
X229616Y280661D01*
D52*
X254360Y277262D02*
X254360Y271060D01*
X252006Y279616D02*
X239357Y279616D01*
X239014Y279273D01*
X252006Y279616D02*
X254360Y277262D01*
D48*
X1015864Y102870D02*
X1023620Y102870D01*
X1030106Y102870D01*
X1023620Y77470D02*
X1024890Y76200D01*
X1023620Y77470D02*
X1023620Y102870D01*
D47*
X332740Y620246D03*
X168910Y457064D03*
X148590Y457064D03*
X172720Y499246D03*
X198120Y511946D03*
X769756Y73660D03*
X393700Y469900D03*
X393700Y269240D03*
X647700Y426720D03*
X648970Y228600D03*
X128270Y469414D03*
D51*
X356124Y468766D02*
X358140Y466750D01*
D45*
X358140Y449650D02*
X363220Y444570D01*
X358140Y449650D02*
X358140Y466750D01*
X356124Y468766D02*
X339090Y468766D01*
D47*
X166488Y365125D03*
D51*
X148454Y207010D02*
X148590Y206874D01*
X148590Y203200D01*
X172720Y499246D02*
X172720Y499596D01*
X904240Y428126D02*
X904240Y427854D01*
X813460Y359410D02*
X813410Y359410D01*
X131056Y265795D02*
X131056Y265540D01*
X130946Y265430D01*
X130946Y227330D02*
X130946Y227140D01*
X130421Y226615D01*
D50*
X327660Y263525D02*
X328782Y263525D01*
X329290Y263017D01*
X229616Y280661D02*
X226314Y280661D01*
X226060Y280915D01*
D52*
X166488Y365125D02*
X165218Y365125D01*
X269360Y294760D02*
X269360Y271060D01*
X269360Y294760D02*
X274320Y299720D01*
D47*
X274320Y299720D03*
X756920Y399914D03*
X624840Y624976D03*
X552450Y624976D03*
X764540Y612276D03*
X693420Y624976D03*
D50*
X764540Y612626D02*
X766594Y614680D01*
X769620Y614680D01*
X767566Y612626D01*
X764540Y612626D01*
X740274Y627380D02*
X737870Y624976D01*
X740274Y627380D02*
X742950Y627380D01*
X740546Y624976D01*
X737870Y624976D01*
X695824Y627380D02*
X693420Y624976D01*
X695824Y627380D02*
X698500Y627380D01*
X696096Y624976D01*
X693420Y624976D01*
X627244Y627380D02*
X624840Y624976D01*
X627244Y627380D02*
X631190Y627380D01*
X628786Y624976D01*
X624840Y624976D01*
X554854Y627380D02*
X552450Y624976D01*
X554854Y627380D02*
X557530Y627380D01*
X555126Y624976D01*
X552450Y624976D01*
D47*
X1085850Y500380D03*
D48*
X679936Y71606D02*
X679936Y43180D01*
X679936Y71606D02*
X681990Y73660D01*
X679936Y26320D02*
X684666Y21590D01*
X679936Y26320D02*
X679936Y43180D01*
D52*
X760244Y612626D02*
X764540Y612626D01*
X760244Y612626D02*
X758190Y614680D01*
X762136Y614680D01*
X764540Y612276D01*
D47*
X488950Y539750D03*
D51*
X332740Y620246D02*
X332740Y621166D01*
D47*
X904240Y346224D03*
D51*
X904240Y350520D01*
D48*
X311150Y615166D02*
X308610Y612626D01*
X308610Y596900D01*
D47*
X288290Y622436D03*
D48*
X647700Y227330D02*
X647700Y223520D01*
X647700Y227330D02*
X648970Y228600D01*
D57*
X1050320Y-314920D03*
X930320Y-314920D03*
M02*
