G04 EAGLE Gerber RS-274X export*
G75*
%MOMM*%
%FSLAX34Y34*%
%LPD*%
%INSolder stop mask CMP*%
%IPPOS*%
%AMOC8*
5,1,8,0,0,1.08239X$1,22.5*%
G01*
%ADD10C,1.778000*%
%ADD11R,1.203200X0.403200*%
%ADD12R,0.403200X1.203200*%
%ADD13P,1.951982X8X22.500000*%
%ADD14P,1.924489X8X202.500000*%
%ADD15C,1.981200*%
%ADD16C,1.965200*%
%ADD17P,1.924489X8X292.500000*%
%ADD18R,1.703200X1.503200*%
%ADD19R,1.503200X1.703200*%
%ADD20R,1.965200X1.965200*%
%ADD21C,1.965200*%
%ADD22P,1.924489X8X112.500000*%
%ADD23R,1.367800X1.668500*%
%ADD24C,2.908300*%
%ADD25R,2.203200X1.703200*%
%ADD26R,2.203200X4.003200*%
%ADD27C,1.803200*%
%ADD28C,3.203200*%
%ADD29C,2.465200*%
%ADD30C,1.879600*%
%ADD31R,1.703200X1.703200*%
%ADD32C,1.714500*%
%ADD33C,2.703200*%
%ADD34R,1.803200X2.006200*%
%ADD35C,2.082800*%
%ADD36C,3.505200*%
%ADD37R,1.143200X0.689200*%
%ADD38C,0.689200*%
%ADD39R,1.367800X2.018500*%
%ADD40R,1.203200X2.403200*%
%ADD41R,2.018500X1.367800*%
%ADD42R,1.668500X1.367800*%
%ADD43R,0.832300X0.763200*%
%ADD44R,0.763200X0.832300*%
%ADD45R,2.603200X2.103200*%
%ADD46R,2.203200X2.203200*%
%ADD47C,0.903200*%
%ADD48C,0.990600*%
%ADD49C,2.108200*%
%ADD50R,3.759200X3.759200*%


D10*
X316484Y520700D02*
X300736Y520700D01*
X300736Y546100D02*
X316484Y546100D01*
X240284Y546100D02*
X224536Y546100D01*
X224536Y520700D02*
X240284Y520700D01*
X300736Y571500D02*
X316484Y571500D01*
X316484Y596900D02*
X300736Y596900D01*
X240284Y571500D02*
X224536Y571500D01*
X224536Y596900D02*
X240284Y596900D01*
X863346Y127000D02*
X879094Y127000D01*
X879094Y152400D02*
X863346Y152400D01*
X863346Y279400D02*
X879094Y279400D01*
X879094Y304800D02*
X863346Y304800D01*
X863346Y177800D02*
X879094Y177800D01*
X879094Y203200D02*
X863346Y203200D01*
X863346Y254000D02*
X879094Y254000D01*
X879094Y228600D02*
X863346Y228600D01*
X802894Y304800D02*
X787146Y304800D01*
X787146Y279400D02*
X802894Y279400D01*
X802894Y254000D02*
X787146Y254000D01*
X787146Y228600D02*
X802894Y228600D01*
X802894Y203200D02*
X787146Y203200D01*
X787146Y177800D02*
X802894Y177800D01*
X802894Y152400D02*
X787146Y152400D01*
X787146Y127000D02*
X802894Y127000D01*
D11*
X231860Y253560D03*
X231860Y248560D03*
X231860Y243560D03*
X231860Y238560D03*
X231860Y233560D03*
X231860Y228560D03*
X231860Y223560D03*
X231860Y218560D03*
X231860Y213560D03*
X231860Y208560D03*
X231860Y203560D03*
X231860Y198560D03*
D12*
X249360Y181060D03*
X254360Y181060D03*
X259360Y181060D03*
X264360Y181060D03*
X269360Y181060D03*
X274360Y181060D03*
X279360Y181060D03*
X284360Y181060D03*
X289360Y181060D03*
X294360Y181060D03*
X299360Y181060D03*
X304360Y181060D03*
D11*
X321860Y198560D03*
X321860Y203560D03*
X321860Y208560D03*
X321860Y213560D03*
X321860Y218560D03*
X321860Y223560D03*
X321860Y228560D03*
X321860Y233560D03*
X321860Y238560D03*
X321860Y243560D03*
X321860Y248560D03*
X321860Y253560D03*
D12*
X304360Y271060D03*
X299360Y271060D03*
X294360Y271060D03*
X289360Y271060D03*
X284360Y271060D03*
X279360Y271060D03*
X274360Y271060D03*
X269360Y271060D03*
X264360Y271060D03*
X259360Y271060D03*
X254360Y271060D03*
X249360Y271060D03*
D13*
X245110Y621030D03*
D14*
X688340Y398780D03*
X701040Y379730D03*
X713740Y398780D03*
D15*
X462280Y561340D02*
X462280Y579120D01*
X436880Y579120D02*
X436880Y561340D01*
X414020Y561340D02*
X414020Y579120D01*
X304800Y453390D02*
X287020Y453390D01*
X287020Y427990D02*
X304800Y427990D01*
X304800Y405130D02*
X287020Y405130D01*
X462280Y615950D02*
X462280Y633730D01*
X436880Y633730D02*
X436880Y615950D01*
X414020Y615950D02*
X414020Y633730D01*
D16*
X434340Y509190D02*
X434340Y491570D01*
X459740Y491570D02*
X459740Y509190D01*
X485140Y509190D02*
X485140Y491570D01*
X510540Y491570D02*
X510540Y509190D01*
X535940Y509190D02*
X535940Y491570D01*
X561340Y491570D02*
X561340Y509190D01*
X586740Y509190D02*
X586740Y491570D01*
X434340Y204390D02*
X434340Y186770D01*
X459740Y186770D02*
X459740Y204390D01*
X485140Y204390D02*
X485140Y186770D01*
X510540Y186770D02*
X510540Y204390D01*
X535940Y204390D02*
X535940Y186770D01*
X561340Y186770D02*
X561340Y204390D01*
X586740Y204390D02*
X586740Y186770D01*
D10*
X873760Y608076D02*
X873760Y623824D01*
X848360Y623824D02*
X848360Y608076D01*
X848360Y547624D02*
X848360Y531876D01*
X873760Y531876D02*
X873760Y547624D01*
X822960Y608076D02*
X822960Y623824D01*
X797560Y623824D02*
X797560Y608076D01*
X822960Y547624D02*
X822960Y531876D01*
X797560Y531876D02*
X797560Y547624D01*
X873760Y480314D02*
X873760Y464566D01*
X848360Y464566D02*
X848360Y480314D01*
X848360Y404114D02*
X848360Y388366D01*
X873760Y388366D02*
X873760Y404114D01*
X822960Y464566D02*
X822960Y480314D01*
X797560Y480314D02*
X797560Y464566D01*
X822960Y404114D02*
X822960Y388366D01*
X797560Y388366D02*
X797560Y404114D01*
D17*
X533400Y563880D03*
X552450Y576580D03*
X533400Y589280D03*
X690880Y563880D03*
X709930Y576580D03*
X690880Y589280D03*
X614680Y563880D03*
X633730Y576580D03*
X614680Y589280D03*
D18*
X904240Y622910D03*
X904240Y603910D03*
D19*
X680110Y354330D03*
X699110Y354330D03*
X734670Y354330D03*
X715670Y354330D03*
D18*
X735330Y370230D03*
X735330Y389230D03*
D19*
X610260Y527050D03*
X629260Y527050D03*
D18*
X571500Y641960D03*
X571500Y622960D03*
X533400Y641960D03*
X533400Y622960D03*
D19*
X765150Y591820D03*
X746150Y591820D03*
X746150Y561340D03*
X765150Y561340D03*
D18*
X712470Y641960D03*
X712470Y622960D03*
X674370Y641960D03*
X674370Y622960D03*
X605790Y641960D03*
X605790Y622960D03*
X643890Y641960D03*
X643890Y622960D03*
X692150Y316890D03*
X692150Y335890D03*
X674370Y335890D03*
X674370Y316890D03*
D20*
X955040Y304870D03*
D21*
X955040Y218370D03*
D20*
X955040Y198190D03*
D21*
X955040Y111690D03*
D20*
X924560Y304870D03*
D21*
X924560Y218370D03*
D20*
X924560Y198190D03*
D21*
X924560Y111690D03*
D20*
X711200Y320110D03*
D21*
X711200Y233610D03*
D20*
X711200Y213430D03*
D21*
X711200Y126930D03*
D20*
X741680Y320110D03*
D21*
X741680Y233610D03*
D20*
X741680Y213430D03*
D21*
X741680Y126930D03*
D15*
X219710Y124460D02*
X201930Y124460D01*
X201930Y149860D02*
X219710Y149860D01*
X219710Y175260D02*
X201930Y175260D01*
D18*
X243078Y351638D03*
X243078Y332638D03*
X242824Y317094D03*
X242824Y298094D03*
D15*
X143510Y609600D02*
X125730Y609600D01*
X125730Y584200D02*
X143510Y584200D01*
X143510Y561340D02*
X125730Y561340D01*
D19*
X131470Y527050D03*
X150470Y527050D03*
D15*
X181610Y609600D02*
X199390Y609600D01*
X199390Y584200D02*
X181610Y584200D01*
X181610Y561340D02*
X199390Y561340D01*
D22*
X377190Y563880D03*
X377190Y640080D03*
X353060Y563880D03*
X353060Y640080D03*
D19*
X696570Y427990D03*
X677570Y427990D03*
X832460Y359410D03*
X813460Y359410D03*
D23*
X720226Y427990D03*
X737734Y427990D03*
D19*
X701700Y469900D03*
X720700Y469900D03*
X741070Y527050D03*
X760070Y527050D03*
X850240Y505460D03*
X831240Y505460D03*
D23*
X148454Y265430D03*
X130946Y265430D03*
X148454Y227330D03*
X130946Y227330D03*
D20*
X337820Y358070D03*
D21*
X337820Y444570D03*
D18*
X274320Y371450D03*
X274320Y352450D03*
D24*
X970280Y419100D03*
X970280Y372110D03*
X970280Y466090D03*
X1051560Y271780D03*
X1051560Y224790D03*
X1051560Y318770D03*
X1051560Y419100D03*
X1051560Y372110D03*
X1051560Y466090D03*
D18*
X765810Y221590D03*
X765810Y202590D03*
X762000Y306730D03*
X762000Y325730D03*
D25*
X105660Y185560D03*
X105660Y162560D03*
X105660Y139560D03*
D26*
X168660Y162560D03*
D27*
X120490Y321804D03*
X190490Y321804D03*
D28*
X202490Y296804D03*
D29*
X109490Y296804D03*
X128490Y346804D03*
D18*
X586740Y164440D03*
X586740Y145440D03*
D19*
X777900Y359410D03*
X796900Y359410D03*
D18*
X535940Y164440D03*
X535940Y145440D03*
X561340Y164440D03*
X561340Y145440D03*
D16*
X1035130Y547140D02*
X1052750Y547140D01*
X1052750Y607140D02*
X1035130Y607140D01*
X996940Y585950D02*
X996940Y568330D01*
D23*
X147710Y365125D03*
X165218Y365125D03*
D18*
X104648Y230149D03*
X104648Y249149D03*
D15*
X221234Y388366D02*
X221234Y406146D01*
X195834Y406146D02*
X195834Y388366D01*
X170434Y388366D02*
X170434Y406146D01*
X145034Y406146D02*
X145034Y388366D01*
X119634Y388366D02*
X119634Y406146D01*
D30*
X292100Y366522D02*
X308864Y366522D01*
X308864Y341122D02*
X292100Y341122D01*
X963168Y654050D02*
X979932Y654050D01*
X979932Y628650D02*
X963168Y628650D01*
D20*
X1054170Y500380D03*
D21*
X967670Y500380D03*
D19*
X965810Y330200D03*
X946810Y330200D03*
X986180Y228600D03*
X1005180Y228600D03*
X983640Y330200D03*
X1002640Y330200D03*
D23*
X1047614Y102870D03*
X1030106Y102870D03*
X103006Y115570D03*
X120514Y115570D03*
X998356Y102870D03*
X1015864Y102870D03*
X114164Y205740D03*
X96656Y205740D03*
D31*
X965200Y567970D03*
X965200Y602970D03*
X985520Y249200D03*
X985520Y284200D03*
X502920Y607340D03*
X502920Y642340D03*
D18*
X965200Y527710D03*
X965200Y546710D03*
X1005840Y267310D03*
X1005840Y248310D03*
X502920Y569620D03*
X502920Y588620D03*
D31*
X904240Y477800D03*
X904240Y512800D03*
D18*
X904240Y442620D03*
X904240Y461620D03*
D32*
X942340Y3810D03*
X891540Y3810D03*
X916940Y29210D03*
D15*
X224790Y64770D02*
X224790Y82550D01*
X250190Y82550D02*
X250190Y64770D01*
X275590Y64770D02*
X275590Y82550D01*
X300990Y82550D02*
X300990Y64770D01*
X326390Y64770D02*
X326390Y82550D01*
X351790Y82550D02*
X351790Y64770D01*
X377190Y64770D02*
X377190Y82550D01*
X427990Y82550D02*
X427990Y64770D01*
X707390Y64770D02*
X707390Y82550D01*
X402590Y82550D02*
X402590Y64770D01*
X681990Y64770D02*
X681990Y82550D01*
X656590Y82550D02*
X656590Y64770D01*
X631190Y64770D02*
X631190Y82550D01*
X605790Y82550D02*
X605790Y64770D01*
X580390Y64770D02*
X580390Y82550D01*
X554990Y82550D02*
X554990Y64770D01*
X529590Y64770D02*
X529590Y82550D01*
X504190Y82550D02*
X504190Y64770D01*
X478790Y64770D02*
X478790Y82550D01*
X453390Y82550D02*
X453390Y64770D01*
D33*
X116090Y73660D03*
X116090Y-423340D03*
X816090Y-423340D03*
X816090Y73660D03*
D34*
X172970Y115570D03*
X144530Y115570D03*
D35*
X1050290Y85598D02*
X1050290Y66802D01*
X1024890Y66802D02*
X1024890Y85598D01*
X999490Y85598D02*
X999490Y66802D01*
D36*
X1024890Y-73660D03*
D37*
X1038580Y146710D03*
D38*
X1040850Y156210D02*
X1036310Y156210D01*
X1036310Y165710D02*
X1040850Y165710D01*
X1018540Y165710D02*
X1014000Y165710D01*
X1014000Y156210D02*
X1018540Y156210D01*
X1018540Y146710D02*
X1014000Y146710D01*
D23*
X980576Y207010D03*
X998084Y207010D03*
X1004706Y128270D03*
X1022214Y128270D03*
D39*
X1052344Y186690D03*
X1022836Y186690D03*
D40*
X978330Y161290D03*
X1000330Y161290D03*
D41*
X764540Y642134D03*
X764540Y612626D03*
D42*
X737870Y642484D03*
X737870Y624976D03*
X904240Y566556D03*
X904240Y584064D03*
X904240Y529726D03*
X904240Y547234D03*
X904240Y410346D03*
X904240Y427854D03*
X904240Y394834D03*
X904240Y377326D03*
X875030Y322716D03*
X875030Y340224D03*
D41*
X904240Y316716D03*
X904240Y346224D03*
D23*
X980576Y186690D03*
X998084Y186690D03*
D39*
X1025674Y525780D03*
X996166Y525780D03*
D41*
X756920Y369084D03*
X756920Y339576D03*
D15*
X629920Y140970D02*
X629920Y123190D01*
X655320Y123190D02*
X655320Y140970D01*
X680720Y140970D02*
X680720Y123190D01*
D43*
X217805Y207244D03*
X217805Y216936D03*
D44*
X317968Y263525D03*
X327660Y263525D03*
D43*
X242824Y269581D03*
X242824Y279273D03*
D42*
X325120Y177664D03*
X325120Y160156D03*
X229616Y263153D03*
X229616Y280661D03*
D43*
X311150Y180106D03*
X311150Y170414D03*
D45*
X171450Y227150D03*
X171450Y268150D03*
D23*
X1063612Y525780D03*
X1081120Y525780D03*
X130946Y207010D03*
X148454Y207010D03*
D20*
X363220Y358070D03*
D21*
X363220Y444570D03*
D41*
X311150Y644674D03*
X311150Y615166D03*
D42*
X332740Y638674D03*
X332740Y621166D03*
D18*
X334010Y602590D03*
X334010Y583590D03*
D19*
X351180Y543560D03*
X370180Y543560D03*
X320650Y492760D03*
X301650Y492760D03*
D18*
X358140Y466750D03*
X358140Y485750D03*
X358140Y520040D03*
X358140Y501040D03*
X339090Y520040D03*
X339090Y501040D03*
D42*
X148590Y439556D03*
X148590Y457064D03*
X168910Y439556D03*
X168910Y457064D03*
X198120Y529454D03*
X198120Y511946D03*
D41*
X172720Y529104D03*
X172720Y499596D03*
D25*
X195830Y486550D03*
X195830Y463550D03*
X195830Y440550D03*
D26*
X258830Y463550D03*
D42*
X339090Y486274D03*
X339090Y468766D03*
D23*
X787264Y73660D03*
X769756Y73660D03*
D46*
X393700Y469900D03*
X647700Y223520D03*
X647700Y426720D03*
X393700Y269240D03*
D41*
X128270Y439906D03*
X128270Y469414D03*
D47*
X354330Y243840D03*
X266700Y496570D03*
X223520Y624840D03*
D42*
X756920Y382406D03*
X756920Y399914D03*
X624840Y642484D03*
X624840Y624976D03*
X552450Y642484D03*
X552450Y624976D03*
X693420Y642484D03*
X693420Y624976D03*
D23*
X1068342Y500380D03*
X1085850Y500380D03*
D39*
X709444Y43180D03*
X679936Y43180D03*
D23*
X702174Y21590D03*
X684666Y21590D03*
D42*
X288290Y639944D03*
X288290Y622436D03*
D48*
X845820Y241300D03*
X845820Y266700D03*
X792480Y80010D03*
X762000Y434340D03*
X762000Y444500D03*
X671830Y511810D03*
X670560Y477520D03*
X683260Y511810D03*
X683260Y477520D03*
X361696Y284480D03*
X361950Y269240D03*
X820420Y292100D03*
X762000Y424180D03*
X198755Y241300D03*
X200406Y209677D03*
X281940Y234315D03*
X267970Y317881D03*
X355600Y221361D03*
X377845Y185400D03*
X726948Y66040D03*
X731520Y5080D03*
D49*
X965320Y-389920D03*
D48*
X365760Y225044D03*
X386087Y191142D03*
X736854Y66040D03*
X741680Y8890D03*
D49*
X1015320Y-389920D03*
D48*
X373380Y233680D03*
X393700Y198120D03*
X746760Y66040D03*
X751840Y8890D03*
D49*
X965320Y-244920D03*
D48*
X288016Y165120D03*
X298450Y163830D03*
X346710Y275590D03*
X345440Y320040D03*
X262890Y520700D03*
X191770Y221067D03*
X182626Y243889D03*
X127127Y244856D03*
X108204Y246888D03*
X319786Y275590D03*
X320040Y318861D03*
X309880Y275082D03*
X310134Y318861D03*
X276860Y220345D03*
X367030Y185420D03*
X287655Y212725D03*
X356235Y185420D03*
X283210Y203835D03*
X345440Y185495D03*
X246380Y154940D03*
X302260Y142875D03*
X248387Y143683D03*
X277361Y144780D03*
X254498Y135784D03*
X284480Y137160D03*
X261359Y128636D03*
X276860Y129406D03*
X275590Y16510D03*
X659130Y-3810D03*
X208280Y215900D03*
X206375Y247650D03*
X369570Y146050D03*
X214630Y241300D03*
X217170Y198120D03*
X762610Y412750D03*
D49*
X1015320Y-244920D03*
X990320Y-389920D03*
D48*
X328295Y161290D03*
X329290Y263017D03*
X234188Y280670D03*
X252730Y222250D03*
X674370Y316890D03*
X813410Y359410D03*
X758190Y339090D03*
X831240Y505460D03*
X760070Y527050D03*
X677570Y427990D03*
X720700Y469900D03*
X875030Y340224D03*
X999490Y204470D03*
X999490Y184150D03*
X1017270Y168910D03*
X1027430Y191770D03*
X1027430Y181610D03*
X999490Y194310D03*
X904240Y591820D03*
X974700Y330200D03*
X904240Y428126D03*
X1005840Y267310D03*
X904240Y547234D03*
X226060Y280915D03*
X130421Y226615D03*
X131056Y265795D03*
X737870Y624976D03*
X502920Y569620D03*
X1081120Y525780D03*
X101092Y190500D03*
X101092Y180340D03*
X109220Y190500D03*
X109338Y180086D03*
X274320Y352450D03*
X121412Y119634D03*
X121158Y111760D03*
X148590Y210820D03*
X148590Y203200D03*
X332740Y620246D03*
X168910Y457064D03*
X148590Y457064D03*
X172720Y499246D03*
X198120Y511946D03*
X769756Y73660D03*
X393700Y469900D03*
X393700Y269240D03*
X647700Y426720D03*
X648970Y228600D03*
X128270Y469414D03*
X166488Y365125D03*
X274320Y299720D03*
X756920Y399914D03*
X624840Y624976D03*
X552450Y624976D03*
X764540Y612276D03*
X693420Y624976D03*
X1085850Y500380D03*
X488950Y539750D03*
X904240Y346224D03*
X288290Y622436D03*
D50*
X1050320Y-314920D03*
X930320Y-314920D03*
M02*
